<?xml version="1.0" encoding="utf-8"?>
<!-- Generator: Adobe Illustrator 23.1.0, SVG Export Plug-In . SVG Version: 6.00 Build 0)  -->
<svg version="1.1" id="c8a8ddad-a781-47c5-a247-afce95df410f"
	 xmlns="http://www.w3.org/2000/svg" xmlns:xlink="http://www.w3.org/1999/xlink" x="0px" y="0px" viewBox="0 0 970 1051.2"
	 style="enable-background:new 0 0 970 1051.2;" xml:space="preserve">
<style type="text/css">
	.st0{opacity:0.5;}
	.st1{fill:url(#SVGID_1_);}
	.st2{fill:#448AFF;}
	.st3{opacity:0.3;enable-background:new    ;}
	.st4{fill:url(#SVGID_2_);}
	.st5{fill:#F55F44;}
	.st6{opacity:0.1;enable-background:new    ;}
	.st7{fill:url(#SVGID_3_);}
	.st8{fill:url(#SVGID_4_);}
	.st9{fill:url(#SVGID_5_);}
	.st10{fill:url(#SVGID_6_);}
	.st11{fill:#F99F8F;}
	.st12{opacity:0.15;fill:#FFFFFF;enable-background:new    ;}
	.st13{fill:#FDA57D;}
	.st14{fill:url(#SVGID_7_);}
	.st15{fill:#4D8AF0;}
	.st16{fill:#FFD180;}
	.st17{opacity:0.1;}
	.st18{fill:url(#SVGID_8_);}
	.st19{fill:#FFFFFF;}
	.st20{fill:#58555D;}
	.st21{opacity:0.1;fill:url(#SVGID_9_);enable-background:new    ;}
	.st22{fill:url(#SVGID_10_);}
	.st23{fill:#333333;}
	.st24{fill:#3AD29F;}
	.st25{opacity:0.5;fill:#58555D;enable-background:new    ;}
	.st26{fill:url(#SVGID_11_);}
	.st27{fill:url(#SVGID_12_);}
	.st28{opacity:0.2;fill:none;stroke:#000000;stroke-miterlimit:10;enable-background:new    ;}
	.st29{fill:#E0E0E0;}
	.st30{fill:#C4C4C4;}
	.st31{fill:#67676B;}
	.st32{fill:#AAAAAA;}
</style>
<title>chilling</title>
<g class="st0">
	
		<linearGradient id="SVGID_1_" gradientUnits="userSpaceOnUse" x1="600" y1="378.0779" x2="600" y2="903.7979" gradientTransform="matrix(1 0 0 -1 -115 1263.9158)">
		<stop  offset="0" style="stop-color:#808080;stop-opacity:0.25"/>
		<stop  offset="0.54" style="stop-color:#808080;stop-opacity:0.12"/>
		<stop  offset="1" style="stop-color:#808080;stop-opacity:0.1"/>
	</linearGradient>
	<path class="st1" d="M918.8,464.2H786v-50.8c0-29.4-23.8-53.2-53.2-53.2H124.5c-26.7,0-48.3,21.6-48.3,48.3l0,0v55.8h-20
		c-31,0-56.2,25.1-56.2,56.1v252c0,29.4,22.7,53.8,52,56v57h56.8v-56.8h71.5v57.3h56.8v-57.3h511v57.3h56.8v-57.3h47.3v56.8H909
		v-56.8h10.2c28,0,50.8-22.7,50.8-50.8c0,0,0,0,0,0V515.4C970,487.1,947.1,464.2,918.8,464.2C918.8,464.2,918.8,464.2,918.8,464.2z
		 M776,686.6v42.6H564.3c2.3-4.1,3.5-8.7,3.5-13.4v-29.2H776z"/>
</g>
<rect x="68.1" y="807.2" class="st2" width="54.7" height="68.3"/>
<rect x="738.4" y="807.7" class="st2" width="54.7" height="68.3"/>
<rect x="838.6" y="807.2" class="st2" width="54.7" height="68.3"/>
<rect x="191.6" y="807.7" class="st2" width="54.7" height="68.3"/>
<rect x="68.1" y="807.2" class="st3" width="54.7" height="68.3"/>
<rect x="738.4" y="807.7" class="st3" width="54.7" height="68.3"/>
<rect x="838.6" y="807.2" class="st3" width="54.7" height="68.3"/>
<rect x="191.6" y="807.7" class="st3" width="54.7" height="68.3"/>
<path class="st2" d="M765.2,470.1h137.5c27.2,0,49.3,22.1,49.3,49.3l0,0V772c0,27-21.9,48.9-48.9,48.9l0,0H765.2l0,0V470.1
	L765.2,470.1z"/>
<path class="st3" d="M765.2,470.1h137.5c27.2,0,49.3,22.1,49.3,49.3l0,0V772c0,27-21.9,48.9-48.9,48.9l0,0H765.2l0,0V470.1
	L765.2,470.1z"/>
<path class="st2" d="M137.9,369.8h263.3l0,0v314.4l0,0H91.4l0,0V416.3C91.4,390.7,112.2,369.8,137.9,369.8z"/>
<path class="st3" d="M139.4,369.8h261.8l0,0v314.4l0,0H91.4l0,0V417.8C91.4,391.3,112.9,369.8,139.4,369.8
	C139.4,369.8,139.4,369.8,139.4,369.8z"/>
<path class="st2" d="M209.2,369.8h255.3l0,0v314.4l0,0H154.7l0,0V424.4C154.7,394.3,179.1,369.8,209.2,369.8L209.2,369.8z"/>
<path class="st2" d="M463,369.8h260.5c28.3,0,51.3,23,51.3,51.3l0,0v263.1l0,0H463l0,0V369.8L463,369.8z"/>
<path class="st2" d="M851.8,470.1h51c27.2,0,49.2,22.1,49.2,49.3V772c0,27-21.9,48.9-48.9,48.9l0,0h-51.4l0,0V470.1L851.8,470.1z"/>
<rect x="223" y="725.2" class="st2" width="628.7" height="95.7"/>
<linearGradient id="SVGID_2_" gradientUnits="userSpaceOnUse" x1="1748.5392" y1="2805.6711" x2="1748.5392" y2="3019.9053" gradientTransform="matrix(0.8179 -0.5753 -0.5753 -0.8179 605.9686 3974.6658)">
	<stop  offset="0" style="stop-color:#808080;stop-opacity:0.25"/>
	<stop  offset="0.54" style="stop-color:#808080;stop-opacity:0.12"/>
	<stop  offset="1" style="stop-color:#808080;stop-opacity:0.1"/>
</linearGradient>
<path class="st4" d="M298.8,502.4l68.7-20c30.2-8.8,61.9,8.6,70.7,38.8l22.8,78.1c8.8,30.2-8.6,61.9-38.8,70.7l-68.7,20
	c-30.2,8.8-61.9-8.6-70.7-38.8L260,573.2C251.2,542.9,268.5,511.3,298.8,502.4z"/>
<path class="st5" d="M299.6,510.4l64.1-18.7c28.2-8.2,57.7,8,66,36.2l21.2,72.8c8.2,28.2-8,57.7-36.2,66l-64.1,18.7
	c-28.2,8.2-57.7-8-66-36.2l-21.2-72.8C255.2,548.2,271.4,518.6,299.6,510.4z"/>
<path class="st6" d="M299.6,510.4l64.1-18.7c28.2-8.2,57.7,8,66,36.2l21.2,72.8c8.2,28.2-8,57.7-36.2,66l-64.1,18.7
	c-28.2,8.2-57.7-8-66-36.2l-21.2-72.8C255.2,548.2,271.4,518.6,299.6,510.4z"/>
<path class="st5" d="M302.9,508.1l64.1-18.7c28.2-8.2,57.7,8,66,36.2l21.2,72.8c8.2,28.2-8,57.7-36.2,66L353.9,683
	c-28.2,8.2-57.7-8-66-36.2l-21.2-72.8C258.5,545.8,274.7,516.3,302.9,508.1z"/>
<linearGradient id="SVGID_3_" gradientUnits="userSpaceOnUse" x1="1762.1859" y1="2944.7031" x2="1762.1859" y2="2972.043" gradientTransform="matrix(0.8179 -0.5753 -0.5753 -0.8179 605.992 3974.6614)">
	<stop  offset="0" style="stop-color:#808080;stop-opacity:0.25"/>
	<stop  offset="0.54" style="stop-color:#808080;stop-opacity:0.12"/>
	<stop  offset="1" style="stop-color:#808080;stop-opacity:0.1"/>
</linearGradient>
<circle class="st7" cx="345.4" cy="541.1" r="13.7"/>
<linearGradient id="SVGID_4_" gradientUnits="userSpaceOnUse" x1="1794.0759" y1="2876.3633" x2="1794.0759" y2="2903.7034" gradientTransform="matrix(0.8179 -0.5753 -0.5753 -0.8179 605.9941 3974.6572)">
	<stop  offset="0" style="stop-color:#808080;stop-opacity:0.25"/>
	<stop  offset="0.54" style="stop-color:#808080;stop-opacity:0.12"/>
	<stop  offset="1" style="stop-color:#808080;stop-opacity:0.1"/>
</linearGradient>
<circle class="st8" cx="410.8" cy="578.6" r="13.7"/>
<linearGradient id="SVGID_5_" gradientUnits="userSpaceOnUse" x1="1689.2859" y1="2903.7034" x2="1689.2859" y2="2931.0432" gradientTransform="matrix(0.8179 -0.5753 -0.5753 -0.8179 605.992 3974.6511)">
	<stop  offset="0" style="stop-color:#808080;stop-opacity:0.25"/>
	<stop  offset="0.54" style="stop-color:#808080;stop-opacity:0.12"/>
	<stop  offset="1" style="stop-color:#808080;stop-opacity:0.1"/>
</linearGradient>
<circle class="st9" cx="309.4" cy="616.6" r="13.7"/>
<linearGradient id="SVGID_6_" gradientUnits="userSpaceOnUse" x1="1716.616" y1="2835.363" x2="1716.616" y2="2862.7031" gradientTransform="matrix(0.8179 -0.5753 -0.5753 -0.8179 605.9901 3974.6521)">
	<stop  offset="0" style="stop-color:#808080;stop-opacity:0.25"/>
	<stop  offset="0.54" style="stop-color:#808080;stop-opacity:0.12"/>
	<stop  offset="1" style="stop-color:#808080;stop-opacity:0.1"/>
</linearGradient>
<circle class="st10" cx="371.1" cy="656.7" r="13.7"/>
<circle class="st11" cx="345.4" cy="541.1" r="9.1"/>
<circle class="st11" cx="410.8" cy="578.6" r="9.1"/>
<circle class="st11" cx="309.4" cy="616.6" r="9.1"/>
<circle class="st11" cx="371.1" cy="656.7" r="9.1"/>
<path class="st2" d="M72.1,470.1h201l0,0v350.8l0,0h-201c-29.9,0-54.1-24.2-54.1-54.1V524.2C18,494.3,42.2,470.1,72.1,470.1z"/>
<path class="st3" d="M72.5,470.1h150.2c27.9,0,50.4,22.6,50.4,50.4c0,0,0,0,0,0v249.9c0,27.9-22.6,50.4-50.4,50.4H72.5
	c-30.1,0-54.5-24.4-54.5-54.5V524.6C18,494.5,42.4,470.1,72.5,470.1z"/>
<path class="st6" d="M173.4,470.1h87.8c9.4,0,17,7.6,17,17v316.8c0,9.4-7.6,17-17,17h-87.8l0,0V470.1L173.4,470.1z"/>
<path class="st2" d="M168.4,470.1h87.8c9.4,0,17,7.6,17,17v316.8c0,9.4-7.6,17-17,17h-87.8l0,0V470.1L168.4,470.1z"/>
<rect x="250.4" y="652.3" class="st2" width="314.4" height="86.6"/>
<rect x="565.2" y="652.8" class="st2" width="314.4" height="86.6"/>
<path class="st12" d="M277,652.3h261.2c14.7,0,26.6,11.9,26.6,26.6v33.4c0,14.7-11.9,26.6-26.6,26.6H277
	c-14.7,0-26.6-11.9-26.6-26.6v-33.4C250.4,664.2,262.3,652.3,277,652.3z"/>
<circle class="st2" cx="601.4" cy="474.9" r="18.2"/>
<circle class="st3" cx="601.4" cy="474.9" r="18.2"/>
<circle class="st2" cx="319" cy="474.9" r="18.2"/>
<circle class="st3" cx="319" cy="474.9" r="18.2"/>
<ellipse class="st13" cx="309.8" cy="371.9" rx="4.6" ry="6.8"/>
<path class="st12" d="M591.8,652.8H853c14.7,0,26.6,11.9,26.6,26.6v33.4c0,14.7-11.9,26.6-26.6,26.6H591.8
	c-14.7,0-26.6-11.9-26.6-26.6v-33.4C565.2,664.7,577.1,652.8,591.8,652.8z"/>
<g class="st0">
	
		<linearGradient id="SVGID_7_" gradientUnits="userSpaceOnUse" x1="752.696" y1="713.9979" x2="752.696" y2="851.3279" gradientTransform="matrix(1 0 0 -1 -115 1263.9158)">
		<stop  offset="0" style="stop-color:#808080;stop-opacity:0.25"/>
		<stop  offset="0.54" style="stop-color:#808080;stop-opacity:0.12"/>
		<stop  offset="1" style="stop-color:#808080;stop-opacity:0.1"/>
	</linearGradient>
	<path class="st14" d="M672.4,477.6c-2.1-11.5-4.2-23.1-9-33.8c-5.2-11.7-13.4-21.9-23.8-29.6c-1.5-1.2-3.4-1.7-5.4-1.6l0,0
		c-3,0.3-3.9,2.1-4.4,4c-0.1,0.2-0.1,0.4-0.2,0.7c-1.2,5.8-0.4,11.6,1.3,17.3c2.1,7.1,5.7,14,8.7,20.9c5.4,12.3,8.9,25.3,10.5,38.6
		c0.2,1.8,0.4,3.6,0.4,5.4c0,1.1,0,2.2-0.1,3.2c-0.1,2.1-0.6,4.2-1.4,6.1c-0.1,0.3-0.3,0.7-0.5,1c-0.2,0.3-0.3,0.7-0.5,0.9
		c-1.8,3-4.7,5.1-7.4,7.3s-5.9,4.4-9.3,5.5h0.1c-1.5,0.6-3.2,0.8-4.8,0.8c-5.1-0.2-10.6-4.3-15.8-3.3l0,0l-0.6,0.1
		c-5.3,1.4-9.3,9.7-9.4,15l0,0c0,0.4,0,0.8,0,1.2c0,0.1,0,0.3,0,0.4s0.1,0.5,0.1,0.8s0.1,0.3,0.1,0.5c0,0.2,0.1,0.5,0.2,0.7
		c0.1,0.2,0.1,0.3,0.1,0.5c0,0.2,0.1,0.4,0.2,0.6c0.1,0.2,0.1,0.3,0.2,0.4s0.2,0.4,0.3,0.6l0.2,0.4c0.1,0.2,0.2,0.3,0.3,0.5l0.3,0.4
		l0.3,0.5l0.3,0.4l0.4,0.4l0.3,0.3l0.4,0.4l0.3,0.3l0.5,0.4l0.4,0.3l0.5,0.3l0.4,0.3l0.6,0.3l0.4,0.2l0.6,0.3l0.4,0.2
		c0.3,0.1,0.6,0.3,0.9,0.4l0.5,0.2l0.7,0.3l0.5,0.2l0.6,0.2l0.6,0.2l0.6,0.1l0.6,0.1l0.5,0.1l0.7,0.1l0.5,0.1l0.7,0.1l0.5,0.1
		l0.7,0.1h0.5h0.7h0.5h0.8h1.6h0.8h0.3l0.9-0.1h0.2c2.5-0.2,5-0.8,7.3-1.6c7.5-2.8,13.8-8,19.7-13.4c11.6-10.8,22.6-24.1,23.6-39.9
		C674.5,489,673.5,483.3,672.4,477.6z"/>
</g>
<rect x="528.9" y="473.8" class="st6" width="94.3" height="27.3"/>
<rect x="528.9" y="473.8" class="st2" width="94.3" height="24.8"/>
<circle class="st2" cx="583.5" cy="462.2" r="14.9"/>
<path class="st15" d="M555.5,485.1l-0.2-0.2c1.2-0.9,1.4-2.6,0.5-3.8c-0.2-0.2-0.3-0.4-0.5-0.5l0.2-0.2c1.3,1,1.5,2.9,0.5,4.2
	C555.8,484.8,555.6,484.9,555.5,485.1L555.5,485.1z"/>
<path class="st6" d="M555.5,485.1l-0.2-0.2c1.2-0.9,1.4-2.6,0.5-3.8c-0.2-0.2-0.3-0.4-0.5-0.5l0.2-0.2c1.3,1,1.5,2.9,0.5,4.2
	C555.8,484.8,555.6,484.9,555.5,485.1L555.5,485.1z"/>
<path class="st15" d="M555.3,485.1c-1.3-1-1.5-2.9-0.5-4.2c0.2-0.2,0.3-0.4,0.5-0.5l0.2,0.2c-1.2,0.9-1.4,2.6-0.5,3.8
	c0.2,0.2,0.3,0.4,0.5,0.5L555.3,485.1z"/>
<polyline class="st15" points="555.4,480.5 555.4,480.5 555.4,480.5 555.4,480.5 "/>
<path class="st16" d="M631.5,565.2c6.8-2.6,12.6-7.3,18-12.3c10.6-9.8,20.7-22,21.5-36.5c0.3-5.3-0.6-10.5-1.6-15.8
	c-1.9-10.5-3.9-21.1-8.2-30.9c-4.8-10.7-12.3-20-21.7-27c-1.4-1.1-3.2-1.6-4.9-1.5c-3,0.3-3.8,2.3-4.2,4.3
	c-2.4,12,4.2,23.6,9.1,34.8c4.9,11.2,8.1,23.1,9.6,35.3c0.6,5.2,0.9,10.7-1.9,15.2c-1.7,2.7-4.3,4.7-6.8,6.6
	c-3.8,2.9-8,5.9-12.8,5.7s-10.1-4.2-15-2.9s-8.5,8.9-8.6,13.7C604.2,567.2,622.4,568.6,631.5,565.2z"/>
<g class="st17">
	<path d="M647.4,530.9c-1.7,2.7-4.3,4.7-6.8,6.6c-2.5,2.1-5.4,3.8-8.5,5c4.3-0.3,8.2-3,11.7-5.7c2.5-1.9,5.1-3.9,6.8-6.6
		c2.7-4.4,2.5-10,1.9-15.2c-1.5-12.2-4.7-24-9.6-35.3c-4.9-11.2-11.6-22.9-9.1-34.8c0.1-1.4,0.9-2.7,2-3.6c-0.4,0-0.7,0-1.1,0
		c-3,0.3-3.8,2.3-4.2,4.3c-2.4,12,4.2,23.6,9.1,34.8c4.9,11.2,8.1,23.1,9.6,35.3C649.8,520.9,650.1,526.5,647.4,530.9z"/>
	<path d="M607.5,553.4c0-4.5,3.2-11.3,7.5-13.3c-0.7,0-1.5,0.1-2.2,0.3c-4.8,1.3-8.5,8.9-8.6,13.7c-0.1,12.3,15.7,14.3,25.3,11.7
		C620.1,567.2,607.5,564.4,607.5,553.4z"/>
</g>
<g class="st0">
	
		<linearGradient id="SVGID_8_" gradientUnits="userSpaceOnUse" x1="676.625" y1="631.5027" x2="676.625" y2="867.0186" gradientTransform="matrix(1 0 0 -1 -115 1263.9158)">
		<stop  offset="0" style="stop-color:#808080;stop-opacity:0.25"/>
		<stop  offset="0.54" style="stop-color:#808080;stop-opacity:0.12"/>
		<stop  offset="1" style="stop-color:#808080;stop-opacity:0.1"/>
	</linearGradient>
	<path class="st18" d="M537.9,416.7c0,0,27.2-5.5,40.9,0c0,0,8.2-19.1,16.3-19.1s10.9,30,10.9,30l10.9,43.6c0,0,51.8,92.6,0,141.6
		s-133.5-5.5-133.5-40.9s16.3-108.9,16.3-108.9s16.3-59.9,21.8-65.4S537.9,416.7,537.9,416.7z"/>
</g>
<path class="st16" d="M538.8,420.5c0,0,26.2-5.2,39.3,0c0,0,7.8-18.3,15.7-18.3s10.5,28.8,10.5,28.8l10.5,41.9c0,0,49.8,89,0,136.1
	c-49.8,47.2-128.3-5.2-128.3-39.3c0-34,15.7-104.7,15.7-104.7s15.7-57.6,21-62.8S538.8,420.5,538.8,420.5z"/>
<g class="st17">
	<path class="st19" d="M633,521.8c-4-17-10.2-33.5-18.3-48.9l1.7,6.6C623.4,493,629,507.2,633,521.8z"/>
	<path class="st19" d="M491.1,562.7c0-34,12.7-91.1,12.7-91.1s15.7-57.6,21-62.8s15.7,18.3,15.7,18.3s26.2-5.2,39.3,0
		c0,0,7.9-18.3,15.7-18.3c3,0,5.3,4.3,6.9,9.6c-1.6-7.8-4.3-16.3-8.6-16.3c-7.8,0-15.7,18.3-15.7,18.3c-13.1-5.2-39.3,0-39.3,0
		s-10.5-23.6-15.7-18.3c-5.2,5.2-21,62.8-21,62.8s-12.7,57-12.7,91.1C489.5,559.2,491.1,563.7,491.1,562.7z"/>
</g>
<circle class="st20" cx="589.8" cy="466.4" r="5.2"/>
<circle class="st20" cx="529.6" cy="466.4" r="5.2"/>
<ellipse class="st20" cx="561" cy="471.6" rx="7.8" ry="5.2"/>
<rect x="605.3" y="462.4" transform="matrix(0.9762 -0.2168 0.2168 0.9762 -85.84 144.8544)" class="st16" width="24.1" height="2.6"/>
<rect x="605.3" y="472.9" transform="matrix(0.9807 -0.1954 0.1954 0.9807 -80.7389 130.0498)" class="st16" width="26.7" height="2.6"/>
<rect x="496.9" y="444.4" transform="matrix(0.3714 -0.9285 0.9285 0.3714 -112.5224 750.7972)" class="st16" width="2.6" height="28.2"/>
<rect x="493" y="451.8" transform="matrix(0.1521 -0.9884 0.9884 0.1521 -44.4239 886.2178)" class="st16" width="2.6" height="34.4"/>
<path class="st6" d="M554.5,505.1c-6.9,0-13.7-0.6-20.5-1.7c-13-2.2-25.5-6.7-36.9-13.3l0.9-4.2c11.6,6.3,24.1,10.7,37,13
	c18.8,3.2,51.3,2.3,84.2-15.9l2.2,4C597.6,500.2,572.4,505.1,554.5,505.1z"/>
<path class="st5" d="M619.3,482c-33,18.2-65.4,19.1-84.2,15.9c-12.9-2.3-25.4-6.7-37-13l-2.4,3.9c12,6.6,25,11.2,38.4,13.6
	c6.8,1.2,13.6,1.8,20.5,1.8c17.9,0,43-4.9,67-18.1L619.3,482z M555.4,503.7c-0.3,0-0.5-0.2-0.5-0.5s0.2-0.5,0.5-0.5
	c0.3,0,0.5,0.2,0.5,0.5C555.9,503.5,555.6,503.7,555.4,503.7L555.4,503.7z"/>
<linearGradient id="SVGID_9_" gradientUnits="userSpaceOnUse" x1="670.36" y1="748.0279" x2="670.36" y2="758.1479" gradientTransform="matrix(1 0 0 -1 -115 1263.9158)">
	<stop  offset="0" style="stop-color:#FFFFFF"/>
	<stop  offset="1" style="stop-color:#000000"/>
</linearGradient>
<path class="st21" d="M550.3,510.8L550.3,510.8c0,2.8,2.3,5.1,5.1,5.1l0,0c2.8,0,5.1-2.3,5.1-5.1l0,0c0-2.8-2.3-5.1-5.1-5.1l0,0
	C552.6,505.8,550.3,508,550.3,510.8z M555.4,508.3c-0.5,0-0.8-0.4-0.8-0.8s0.4-0.8,0.8-0.8c0.5,0,0.8,0.4,0.8,0.8
	C556.2,507.9,555.8,508.3,555.4,508.3L555.4,508.3z"/>
<path class="st15" d="M550.8,510.8L550.8,510.8c0,2.5,2,4.6,4.6,4.6l0,0c2.5,0,4.6-2,4.6-4.6l0,0c0-2.5-2-4.6-4.6-4.6l0,0
	C552.9,506.3,550.8,508.3,550.8,510.8z M555.4,508.5c-0.4,0-0.8-0.3-0.8-0.8s0.3-0.8,0.8-0.8c0.4,0,0.8,0.3,0.8,0.8
	S555.8,508.5,555.4,508.5L555.4,508.5z"/>
<path class="st16" d="M612.6,483.5c-69.7,41-109.8,3-109.8,3L612.6,483.5z"/>
<linearGradient id="SVGID_10_" gradientUnits="userSpaceOnUse" x1="612.6542" y1="370.1038" x2="612.6542" y2="994.3647" gradientTransform="matrix(1 0 0 -1 -115 1263.9158)">
	<stop  offset="0" style="stop-color:#808080;stop-opacity:0.25"/>
	<stop  offset="0.54" style="stop-color:#808080;stop-opacity:0.12"/>
	<stop  offset="1" style="stop-color:#808080;stop-opacity:0.1"/>
</linearGradient>
<path class="st22" d="M803.8,684.9c-4.3-12.1-50,22-50,22l-10.6-0.6l-20.3-18.8l14.2-14.2L617.8,571c-6.4-5.5-14.9-8.1-23.3-7
	l-99.1,12.4c-0.4-5.7-3.9-12.4-8.9-19.3c-10.2-16.7-31.6-35.5-39.5-42.2l-12.1-81.5l10.3-15.4c-1.9-0.5-3.8-1.1-5.6-1.9l2.2-3.3
	l-0.8-0.2l1-1.2h-0.1l25.6-29.6c3.9-4.6,3.6-11.4-0.8-15.6l-57.3-43.5c1.7-4.1,2.6-8.6,2.4-13.1c0.5-8.6-3.4-17.4-16.4-23.9
	c-8-3.8-16.4-6.8-25.1-8.9c-14.3-3.7-29.2-3.4-43.4,0.6c-0.2-0.3-0.5-0.6-0.7-0.9c-17.6-20.1-40.7,8.8-41.6,10l-90.3,100.5
	c-5.1,8.1-3.1,18.7,4.5,24.5l47.8,35.9l-0.1,0.3l2.7,2c-2,4-4.8,6.7-8.4,7.1l7.3,3.7c-1.2,0.8-2.5,1.3-3.9,1.5l33.5,16.8
	c0,17.4,1.8,97.2,30.1,136.3c2.9,4.8,6.4,9.3,10.3,13.3c0,0,2.4-1.3,6.8-3.4l5.1,10.1c11.4,22.8,36.1,35.8,61.4,32.1l157.3-22.5
	l-1.7,5l0.9-0.1l-51,153l8.4,2.8l-0.2,0.3l1.2,0.5l-10.6,20l-33.4,25.7c0,0,97.6,48.8,107.9,41.1s-36-41.1-36-41.1l-2.6-10.3
	l11.2-23.7l9.4,3.1l75.6-151.2l0,0l2.6-5.1l51.2,64l14.4-14.4l1.6,1.6l0.1-0.1l20,20.2l14.5,39.5C732.2,775.5,808,697,803.8,684.9z
	 M406.8,390.8l-1-1.2c-6.1,7.6-16.9,16.9-28.9,23.1v-8.4l0.6-0.5v-3.7c15.5-14.3,21.6-36.1,15.7-56.4l33.2,25.5L406.8,390.8z
	 M294,296l-0.8-0.8L294,296L294,296z M267.5,349.5c-0.2,2.7-0.3,5.4-0.3,8c-0.1,3.9,0.2,7.8,0.6,11.7c1.7,13.6,6.6,24.7,16.6,30
	c8.7,4.6,14.5,4.4,18.1,1.2l0.4,0.4c0.3,5.3,1.7,10.5,4.1,15.3c-18.7-3.9-36.6-11.1-52.8-21.3c0,0,0.1,0.7,0.1,1.9L240.6,383
	L267.5,349.5z"/>
<polygon class="st13" points="518.2,776.8 495.7,819.2 530.6,834.2 553.1,786.8 "/>
<path class="st23" d="M530.6,834.2l2.5,10c0,0,44.9,32.4,34.9,39.9s-104.8-39.9-104.8-39.9l32.4-25L530.6,834.2z"/>
<polygon class="st6" points="550.7,791.2 515.4,779.4 504.9,799.3 539.8,814.2 "/>
<polygon class="st13" points="677.7,697.4 711.4,731.5 736.2,702.7 697.7,667.1 "/>
<polygon class="st6" points="699.1,668.7 679.1,699.1 691.9,712 717.8,686.1 "/>
<path class="st23" d="M736.2,702.7l10.3,0.6c0,0,44.4-33.1,48.5-21.3s-69.5,88-69.5,88l-14.1-38.4L736.2,702.7z"/>
<path class="st13" d="M416.5,447.4l51.8-60c3.8-4.4,3.5-11.1-0.8-15.1l-112.8-85.5L341,308.2l87.4,67.3l-37.1,40.7L416.5,447.4z"/>
<path class="st6" d="M410.5,395.2l-18.1,19.9l25.2,31.3l26-30.1C430.9,412.3,419.5,405,410.5,395.2z"/>
<path class="st13" d="M266,460.4l-58.7-44c-7.4-5.6-9.3-15.9-4.4-23.8l87.8-97.7l18,18L248,388.6l35.9,35.9L266,460.4z"/>
<path class="st6" d="M253.6,451.6l9.6,7.2l18-35.9l-22.6-22.5C259.1,408,260.4,437.7,253.6,451.6z"/>
<polygon class="st15" points="550.7,634.7 496.8,796.3 550.7,814.2 640.4,634.7 568.6,616.7 "/>
<polygon class="st6" points="548.2,639.7 545.5,647.8 602,639.7 624.1,667.3 638,639.7 566.1,621.7 "/>
<path class="st13" d="M290.6,295.1c0,0,23-29.7,40.5-9.7s-27.4,22.4-27.4,22.4L290.6,295.1z"/>
<path class="st15" d="M317.3,598.8l17.4,34.7c11.1,22.2,35.1,34.7,59.6,31.2l210.3-30l71.8,89.8l53.8-53.9l-115.8-99.3
	c-6.3-5.4-14.5-7.8-22.6-6.8L317.3,598.8z"/>
<path class="st6" d="M264.6,405.1c0,0,4.7,58.3-13.2,60.3l35.9,18c0,0-2,105.7,35.9,143.6c0,0,69.8-37.9,143.6-35.9
	s-18-71.8-18-71.8l-12.1-81.7l10-15c-13.5-4-25.6-11.8-34.9-22.4l0,0c-10,12.5-32.9,29.4-52.7,29.4h-8.6c-29.6,0-61-6-85.9-21.9
	L264.6,405.1z"/>
<path class="st24" d="M261.2,400.2c0,0,4.8,58.3-13.2,60.3l35.9,18c0,0-2,105.7,35.9,143.6c0,0,69.8-37.9,143.6-35.9
	s-18-71.8-18-71.8l-12.1-81.7l10-15c-13.5-4-25.6-11.8-34.9-22.4l0,0c-10,12.5-32.9,29.4-52.7,29.4h-8.6
	C317.5,424.6,286.1,416.1,261.2,400.2L261.2,400.2z"/>
<path class="st13" d="M308.5,383.7v20c0,10.2,4,19.9,11.2,27.1l42.6,42.6l14.2-28.4c2.5-4.9,3.8-10.4,3.8-15.9v-45.4H308.5z"/>
<path class="st6" d="M309.1,406.8c0,0.7,0,1.5,0.1,2.2c20.4,18.2,51.3,18.2,71.7-0.1v-22.2h-71.8V406.8z"/>
<circle class="st13" cx="344.4" cy="365.8" r="53.9"/>
<path class="st6" d="M308.5,350.6h89.8c0,0,35.9-35.9,0-53.9c-7.8-3.7-16-6.6-24.4-8.6c-54.6-13.8-106.5,31.3-99.5,87.2
	c1.7,13.2,6.4,24,16.1,29.1C328.5,424.4,308.5,350.6,308.5,350.6z"/>
<path class="st23" d="M308.5,348.1h89.8c0,0,35.9-35.9,0-53.9c-7.8-3.7-16-6.6-24.4-8.6c-54.6-13.8-106.5,31.3-99.5,87.2
	c1.7,13.2,6.4,24,16.1,29.1C328.5,421.9,308.5,348.1,308.5,348.1z"/>
<ellipse class="st13" cx="311.1" cy="366.5" rx="5" ry="8.7"/>
<polygon class="st6" points="283.7,477.5 286.2,470 293.7,475 "/>
<path class="st6" d="M445.5,514.4c0,0-27.2,13-34.7,25.5"/>
<polygon class="st6" points="433.4,432.6 430.9,440.1 425.9,432.6 "/>
<path class="st23" d="M308.5,348.1h89.8c0,0,35.9-35.9,0-53.9c-7.8-3.7-16-6.6-24.4-8.6c-54.6-13.8-106.5,31.3-99.5,87.2
	c1.7,13.2,6.4,24,16.1,29.1C328.5,421.9,308.5,348.1,308.5,348.1z"/>
<path class="st6" d="M550,549.7c0,0,18.2,39.6-5.7,43c-23.9,3.4-13-33.2-13-33.2s-2.4-10.8-8.2-11.5"/>
<path class="st6" d="M572,548.8c0,0-21.7,37.8,1.9,43.3s15.9-31.9,15.9-31.9s3.3-10.6,9.2-10.7"/>
<path class="st16" d="M547.9,548.6c0,0,18.2,39.6-5.7,43c-23.9,3.4-13-33.2-13-33.2s-2.4-10.9-8.2-11.5"/>
<path class="st16" d="M573.7,547.1c0,0-21.7,37.8,1.9,43.3s15.9-31.9,15.9-31.9s3.3-10.6,9.2-10.7"/>
<rect x="534.5" y="583.4" class="st25" width="0.4" height="7.7"/>
<rect x="541.1" y="583.4" class="st25" width="0.4" height="7.7"/>
<rect x="537.5" y="580.9" class="st25" width="0.4" height="10.8"/>
<rect x="577.5" y="581.7" class="st25" width="0.4" height="7.7"/>
<rect x="584.1" y="581.7" class="st25" width="0.4" height="7.7"/>
<rect x="580.5" y="579.3" class="st25" width="0.4" height="10.8"/>
<g class="st0">
	
		<linearGradient id="SVGID_11_" gradientUnits="userSpaceOnUse" x1="1194.1379" y1="1440.5315" x2="1194.1379" y2="1535.7115" gradientTransform="matrix(0.9481 -0.318 -0.318 -0.9481 -109.6176 2781.1487)">
		<stop  offset="0" style="stop-color:#808080;stop-opacity:0.25"/>
		<stop  offset="0.54" style="stop-color:#808080;stop-opacity:0.12"/>
		<stop  offset="1" style="stop-color:#808080;stop-opacity:0.1"/>
	</linearGradient>
	<circle class="st26" cx="549.4" cy="990.6" r="47.6"/>
</g>
<circle class="st5" cx="549.4" cy="990.6" r="44.5"/>
<g class="st0">
	
		<linearGradient id="SVGID_12_" gradientUnits="userSpaceOnUse" x1="1091.032" y1="1469.2574" x2="1091.032" y2="1650.548" gradientTransform="matrix(0.9481 -0.318 -0.318 -0.9481 -109.5621 2781.1465)">
		<stop  offset="0" style="stop-color:#808080;stop-opacity:0.25"/>
		<stop  offset="0.54" style="stop-color:#808080;stop-opacity:0.12"/>
		<stop  offset="1" style="stop-color:#808080;stop-opacity:0.1"/>
	</linearGradient>
	<path class="st27" d="M430.8,1050.2c-6.4,2.2-14.4,0.6-17.3-5.5c-1.7-3.6-1.3-7.5-0.9-11.4c0.4-4.2,0.8-7.8-1.6-10.2
		c-1.2-1-2.7-1.8-4.2-2.2c-2-0.7-4.2-1.2-6.2-1.8c-3.7-0.8-7.3-2-10.7-3.5c-6.8-3.2-11.1-8.6-11.6-14.4c-0.4-5,2-9.6,4.3-13.9
		s4.6-8.7,3.5-13c-1.5-5.8-8.4-8.5-14.6-11l-1-0.4c-7.5-3-15.5-9.3-13.5-17.5c0.7-2.8,2.5-5,4.2-7c1.2-1.3,2.2-2.7,3-4.3
		c2.7-5.7-1-12.3-2.6-14.8c-1.3-2-2.8-3.8-4.3-5.7c-2.3-2.7-4.4-5.6-6.1-8.7l-0.3-0.5c-4.1-7.7-4.1-8-3.8-16.4v-1l3.5,0.1v1
		c-0.3,7.6-0.3,7.6,3.4,14.6l0.3,0.5c1.6,2.9,3.6,5.6,5.8,8.1c1.5,1.9,3.1,3.8,4.5,5.9c4.3,6.5,5.3,13.2,2.9,18.3
		c-1,1.8-2.1,3.5-3.5,5c-1.5,1.8-3,3.6-3.5,5.6c-1.6,6.3,6.4,11.3,11.4,13.3l1,0.4c6.6,2.6,14.8,5.8,16.7,13.4
		c1.4,5.6-1.2,10.6-3.8,15.5c-2.2,4.1-4.2,8-3.9,12c0.4,5.4,5.3,9.5,9.6,11.5c3.3,1.4,6.6,2.5,10.1,3.3c2.1,0.5,4.3,1.1,6.5,1.8
		c2.1,0.6,4,1.6,5.6,3.1c3.6,3.5,3.1,8.4,2.6,13.1c-0.4,3.5-0.7,6.8,0.6,9.5c2.3,4.8,9.5,5.5,14.5,3.1c4.1-1.9,7.3-5.2,10.7-8.6
		c1.1-1.1,2.2-2.3,3.4-3.4c6.3-6,12.8-8.6,18.5-7.6c1.8,0.4,3.6,1,5.3,1.7c1.3,0.6,2.7,1.1,4.1,1.4c6.5,1.2,12.9-2.9,14.5-9.3
		c0.1-0.6,0.2-1.2,0.3-1.9c0.3-2.1,0.7-4.4,2.3-6.3s4.3-2.5,6.2-2.9l19.3-4.5l0.8,3.5l-19.3,4.5c-1.8,0.4-3.4,0.9-4.3,1.9
		s-1.2,2.7-1.4,4.4c-0.1,0.7-0.2,1.4-0.4,2.1c-2.1,8.3-10.3,13.6-18.8,12c-1.6-0.4-3.2-0.9-4.7-1.6c-1.5-0.7-3-1.2-4.6-1.5
		c-5.9-1-11.7,3.1-15.5,6.7c-1.1,1.1-2.2,2.2-3.3,3.3c-3.5,3.5-7,7.2-11.7,9.4C432,1049.7,431.4,1050,430.8,1050.2z"/>
</g>
<path class="st5" d="M431.3,1048.5c-6.4,2.2-14.4,0.6-17.3-5.5c-1.7-3.6-1.3-7.5-0.9-11.4c0.4-4.2,0.8-7.8-1.6-10.2
	c-1.2-1-2.7-1.8-4.2-2.2c-2-0.7-4.2-1.2-6.2-1.8c-3.7-0.8-7.3-2-10.7-3.5c-6.8-3.2-11.1-8.6-11.6-14.4c-0.4-5,2-9.6,4.3-13.9
	s4.6-8.7,3.5-13c-1.5-5.8-8.4-8.5-14.6-11l-1-0.4c-7.5-3-15.5-9.3-13.5-17.5c0.7-2.8,2.5-5,4.2-7c1.2-1.3,2.2-2.7,3-4.3
	c2.7-5.7-1-12.3-2.6-14.8c-1.3-2-2.8-3.8-4.3-5.7c-2.3-2.7-4.4-5.6-6.1-8.7l-0.3-0.5c-4.1-7.7-4.1-8-3.8-16.4v-1l3.5,0.1v1
	c-0.3,7.6-0.3,7.6,3.4,14.6l0.3,0.5c1.6,2.9,3.6,5.6,5.8,8.1c1.5,1.9,3.1,3.8,4.5,5.9c4.3,6.5,5.3,13.2,2.9,18.3
	c-1,1.8-2.1,3.5-3.5,5c-1.5,1.8-3,3.6-3.5,5.6c-1.6,6.3,6.4,11.3,11.4,13.3l1,0.4c6.6,2.6,14.8,5.8,16.7,13.4
	c1.4,5.6-1.2,10.6-3.8,15.5c-2.2,4.1-4.2,8-3.9,12c0.4,5.4,5.3,9.5,9.6,11.5c3.3,1.4,6.6,2.5,10.1,3.3c2.1,0.5,4.3,1.1,6.5,1.8
	c2.1,0.6,4,1.6,5.6,3.1c3.6,3.5,3.1,8.4,2.6,13.1c-0.4,3.5-0.7,6.8,0.6,9.5c2.3,4.8,9.5,5.5,14.5,3.1c4.1-1.9,7.3-5.2,10.7-8.6
	c1.1-1.1,2.2-2.3,3.4-3.4c6.3-6,12.8-8.6,18.5-7.6c1.8,0.4,3.6,1,5.3,1.7c1.3,0.6,2.7,1.1,4.1,1.4c6.5,1.2,12.9-2.9,14.5-9.3
	c0.1-0.6,0.2-1.2,0.3-1.9c0.3-2.1,0.7-4.4,2.3-6.3s4.3-2.5,6.2-2.9l19.3-4.5l0.8,3.5l-19.3,4.5c-1.8,0.4-3.4,0.9-4.3,1.9
	s-1.2,2.7-1.4,4.4c-0.1,0.7-0.2,1.4-0.4,2.1c-2.1,8.3-10.3,13.6-18.8,12c-1.6-0.4-3.2-0.9-4.7-1.6c-1.5-0.7-3-1.2-4.6-1.5
	c-5.9-1-11.7,3.1-15.5,6.7c-1.1,1.1-2.2,2.2-3.3,3.3c-3.5,3.5-7,7.2-11.7,9.4C432.5,1048,431.9,1048.2,431.3,1048.5z"/>
<path class="st28" d="M546.8,958.8c0,0,24.7-3.7,36.7,30.7"/>
<path class="st28" d="M519.5,1013.6c0,0-18.3-25.9,14.3-54.5"/>
<path class="st28" d="M527,1004.2c0,0-8.8-13.6,0.4-25.8"/>
<path class="st28" d="M542.8,973.2c0,0,11.7,4.6,13.3,25.4"/>
<path class="st28" d="M556.5,948.9c0,0,18.3,3.5,31,28.6"/>
<path class="st28" d="M533,956.8c0,0,8.6-6.1,16.6-2.9"/>
<path class="st28" d="M539.5,1014.4c0,0,11.5,7.3,41.3-13.8"/>
<path class="st28" d="M537.5,1029c0,0,7.2,7.2,22.3,1.1"/>
<path class="st28" d="M516.1,965.1c-6.3,9.3-8.2,20.9-5.4,31.7"/>
<path class="st28" d="M525.8,1011.5c0,0-1,6.7,6.6,10.1"/>
<path class="st28" d="M585.6,1003.7c0,0-0.5,13-7.7,13.8"/>
<path class="st28" d="M546.1,1022.9c8.8,1.2,17.7-1.8,24-8"/>
<path class="st28" d="M557.2,976.4c0,0,6.3,4.3,5.6,12"/>
<path class="st28" d="M533.4,984.9c0,0-1.7,9.1,2.8,14.6"/>
<path class="st28" d="M538.7,983.2c0,0,6.4,8,4.7,13.9"/>
<g>
	<path class="st29" d="M636.3,52.9H288.9c-15.7,0-28.4,10.5-28.4,23.3v103.7c0,12.9,12.7,23.3,28.4,23.3h347.4
		c15.7,0,28.4-10.5,28.4-23.3V76.2C664.7,63.3,652,52.9,636.3,52.9z"/>
	<path class="st30" d="M636.3,182.2H288.9c-15.7,0-28.4-10.5-28.4-23.3v21c0,12.9,12.7,23.3,28.4,23.3h347.4
		c15.7,0,28.4-10.5,28.4-23.3v-21C664.7,171.7,652,182.2,636.3,182.2z"/>
	<path class="st2" d="M332.1,180.8v17.5c0,2.7,2.2,4.9,4.9,4.9h252.1c2.7,0,4.9-2.2,4.9-4.9v-17.5H332.1z"/>
	<rect x="311.1" y="175.2" class="st31" width="308.5" height="9.7"/>
	<path class="st32" d="M589.1,92.5h-14.4c-2.7,0-4.9-2.2-4.9-4.9c0-2.7,2.2-4.9,4.9-4.9h14.4c2.7,0,4.9,2.2,4.9,4.9
		C593.9,90.3,591.8,92.5,589.1,92.5z"/>
	<path class="st32" d="M552.4,92.5h-92.2c-2.7,0-4.9-2.2-4.9-4.9c0-2.7,2.2-4.9,4.9-4.9h92.2c2.7,0,4.9,2.2,4.9,4.9
		C557.3,90.3,555.1,92.5,552.4,92.5z"/>
	<g>
		<path class="st2" d="M373,254.2c-1.5,0-3-0.7-4-2c-1.6-2.2-1-5.2,1.1-6.8c13.5-9.6,13.7-24,13.7-24.2c0-2.7,2.2-4.9,4.9-4.9
			c2.7,0,4.9,2.2,4.9,4.9c0,0.8-0.2,19.6-17.8,32.1C375,253.9,374,254.2,373,254.2z"/>
		<path class="st2" d="M423.6,254.2c-2.7,0-4.9-2.2-4.9-4.9v-28.2c0-2.7,2.2-4.9,4.9-4.9c2.7,0,4.9,2.2,4.9,4.9v28.2
			C428.5,252,426.3,254.2,423.6,254.2z"/>
		<path class="st2" d="M464.4,254.2c-2.7,0-4.9-2.2-4.9-4.9v-28.2c0-2.7,2.2-4.9,4.9-4.9s4.9,2.2,4.9,4.9v28.2
			C469.2,252,467.1,254.2,464.4,254.2z"/>
		<path class="st2" d="M553,254.2c-1,0-2-0.3-2.8-0.9c-17.6-12.5-17.8-31.3-17.8-32.1c0-2.7,2.2-4.9,4.9-4.9c2.7,0,4.9,2.2,4.9,4.8
			c0,0.6,0.3,14.7,13.7,24.2c2.2,1.6,2.7,4.6,1.1,6.8C556,253.5,554.5,254.2,553,254.2z M542.2,221.1L542.2,221.1L542.2,221.1z"/>
		<path class="st2" d="M501.5,254.2c-2.2,0-4-2.2-4-4.9v-28.2c0-2.7,1.8-4.9,4-4.9c2.2,0,4,2.2,4,4.9v28.2
			C505.6,252,503.8,254.2,501.5,254.2z"/>
	</g>
</g>
</svg>
