<?xml version="1.0" encoding="utf-8"?>
<!-- Generator: Adobe Illustrator 23.1.0, SVG Export Plug-In . SVG Version: 6.00 Build 0)  -->
<svg version="1.1" id="c8a8ddad-a781-47c5-a247-afce95df410f"
	 xmlns="http://www.w3.org/2000/svg" xmlns:xlink="http://www.w3.org/1999/xlink" x="0px" y="0px" viewBox="0 0 1687.1 1051.2"
	 style="enable-background:new 0 0 1687.1 1051.2;" xml:space="preserve">
<style type="text/css">
	.st0{opacity:0.5;}
	.st1{fill:url(#SVGID_1_);}
	.st2{fill:#448AFF;}
	.st3{opacity:0.3;enable-background:new    ;}
	.st4{fill:url(#SVGID_2_);}
	.st5{fill:#F55F44;}
	.st6{opacity:0.1;enable-background:new    ;}
	.st7{fill:url(#SVGID_3_);}
	.st8{fill:url(#SVGID_4_);}
	.st9{fill:url(#SVGID_5_);}
	.st10{fill:url(#SVGID_6_);}
	.st11{fill:#F99F8F;}
	.st12{opacity:0.15;fill:#FFFFFF;enable-background:new    ;}
	.st13{fill:#FDA57D;}
	.st14{fill:url(#SVGID_7_);}
	.st15{fill:#4D8AF0;}
	.st16{fill:#FFD180;}
	.st17{opacity:0.1;}
	.st18{fill:url(#SVGID_8_);}
	.st19{fill:#FFFFFF;}
	.st20{fill:#58555D;}
	.st21{opacity:0.1;fill:url(#SVGID_9_);enable-background:new    ;}
	.st22{fill:url(#SVGID_10_);}
	.st23{fill:#333333;}
	.st24{fill:#3AD29F;}
	.st25{opacity:0.5;fill:#58555D;enable-background:new    ;}
	.st26{fill:url(#SVGID_11_);}
	.st27{fill:url(#SVGID_12_);}
	.st28{opacity:0.2;fill:none;stroke:#000000;stroke-miterlimit:10;enable-background:new    ;}
	.st29{fill:#E0E0E0;}
	.st30{fill:#C4C4C4;}
	.st31{fill:#67676B;}
	.st32{fill:#AAAAAA;}
	.st33{fill:#95A5A5;}
	.st34{fill:#7F8C8D;}
	.st35{fill:#35495E;}
	.st36{fill:#2C3E50;}
	.st37{fill:#ECF0F1;}
	.st38{fill:#56595E;}
	.st39{fill:#F3D55B;}
	.st40{fill:#71C285;}
	.st41{fill:#DF4D60;}
	.st42{fill:#FF5364;}
	.st43{fill:#3B97D3;}
	.st44{fill:#2980BA;}
	.st45{fill:#BDC3C7;}
	.st46{fill:#E6E7E8;}
	.st47{fill:#B0D3F0;}
	.st48{fill:#CC4B4C;}
	.st49{fill:#7ED09E;}
	.st50{fill:#606060;}
</style>
<title>chilling</title>
<g class="st0">
	
		<linearGradient id="SVGID_1_" gradientUnits="userSpaceOnUse" x1="1008.4737" y1="378.0779" x2="1008.4737" y2="903.7979" gradientTransform="matrix(1 0 0 -1 -115 1263.9158)">
		<stop  offset="0" style="stop-color:#808080;stop-opacity:0.25"/>
		<stop  offset="0.54" style="stop-color:#808080;stop-opacity:0.12"/>
		<stop  offset="1" style="stop-color:#808080;stop-opacity:0.1"/>
	</linearGradient>
	<path class="st1" d="M1327.3,464.2h-132.8v-50.8c0-29.4-23.8-53.2-53.2-53.2H533c-26.7,0-48.3,21.6-48.3,48.3l0,0v55.8h-20
		c-31,0-56.2,25.1-56.2,56.1v252c0,29.4,22.7,53.8,52,56v57h56.8v-56.8h71.5v57.3h56.8v-57.3h511v57.3h56.8v-57.3h47.3v56.8h56.8
		v-56.8h10.2c28,0,50.8-22.7,50.8-50.8c0,0,0,0,0,0V515.4C1378.5,487.1,1355.6,464.2,1327.3,464.2
		C1327.3,464.2,1327.3,464.2,1327.3,464.2z M1184.5,686.6v42.6H972.8c2.3-4.1,3.5-8.7,3.5-13.4v-29.2H1184.5z"/>
</g>
<rect x="476.6" y="807.2" class="st2" width="54.7" height="68.3"/>
<rect x="1146.8" y="807.7" class="st2" width="54.7" height="68.3"/>
<rect x="1247.1" y="807.2" class="st2" width="54.7" height="68.3"/>
<rect x="600.1" y="807.7" class="st2" width="54.7" height="68.3"/>
<rect x="476.6" y="807.2" class="st3" width="54.7" height="68.3"/>
<rect x="1146.8" y="807.7" class="st3" width="54.7" height="68.3"/>
<rect x="1247.1" y="807.2" class="st3" width="54.7" height="68.3"/>
<rect x="600.1" y="807.7" class="st3" width="54.7" height="68.3"/>
<path class="st2" d="M1173.7,470.1h137.5c27.2,0,49.3,22.1,49.3,49.3l0,0V772c0,27-21.9,48.9-48.9,48.9l0,0h-137.9l0,0V470.1
	L1173.7,470.1z"/>
<path class="st3" d="M1173.7,470.1h137.5c27.2,0,49.3,22.1,49.3,49.3l0,0V772c0,27-21.9,48.9-48.9,48.9l0,0h-137.9l0,0V470.1
	L1173.7,470.1z"/>
<path class="st2" d="M546.4,369.8h263.3l0,0v314.4l0,0H499.9l0,0V416.3C499.9,390.7,520.7,369.8,546.4,369.8z"/>
<path class="st3" d="M547.9,369.8h261.8l0,0v314.4l0,0H499.9l0,0V417.8C499.9,391.3,521.4,369.8,547.9,369.8
	C547.9,369.8,547.9,369.8,547.9,369.8z"/>
<path class="st2" d="M617.7,369.8H873l0,0v314.4l0,0H563.2l0,0V424.4C563.2,394.3,587.6,369.8,617.7,369.8L617.7,369.8z"/>
<path class="st2" d="M871.5,369.8H1132c28.3,0,51.3,23,51.3,51.3l0,0v263.1l0,0H871.5l0,0V369.8L871.5,369.8z"/>
<path class="st2" d="M1260.2,470.1h51c27.2,0,49.2,22.1,49.2,49.3V772c0,27-21.9,48.9-48.9,48.9l0,0h-51.4l0,0V470.1L1260.2,470.1z"
	/>
<rect x="631.5" y="725.2" class="st2" width="628.7" height="95.7"/>
<linearGradient id="SVGID_2_" gradientUnits="userSpaceOnUse" x1="2157.0129" y1="2805.6711" x2="2157.0129" y2="3019.9053" gradientTransform="matrix(0.8179 -0.5753 -0.5753 -0.8179 680.3317 4209.6572)">
	<stop  offset="0" style="stop-color:#808080;stop-opacity:0.25"/>
	<stop  offset="0.54" style="stop-color:#808080;stop-opacity:0.12"/>
	<stop  offset="1" style="stop-color:#808080;stop-opacity:0.1"/>
</linearGradient>
<path class="st4" d="M707.3,502.4l68.7-20c30.2-8.8,61.9,8.6,70.7,38.8l22.8,78.1c8.8,30.2-8.6,61.9-38.8,70.7l-68.7,20
	c-30.2,8.8-61.9-8.6-70.7-38.8l-22.8-78.1C659.6,542.9,677,511.3,707.3,502.4z"/>
<path class="st5" d="M708.1,510.4l64.1-18.7c28.2-8.2,57.7,8,66,36.2l21.2,72.8c8.2,28.2-8,57.7-36.2,66l-64.1,18.7
	c-28.2,8.2-57.7-8-66-36.2l-21.2-72.8C663.7,548.2,679.9,518.6,708.1,510.4z"/>
<path class="st6" d="M708.1,510.4l64.1-18.7c28.2-8.2,57.7,8,66,36.2l21.2,72.8c8.2,28.2-8,57.7-36.2,66l-64.1,18.7
	c-28.2,8.2-57.7-8-66-36.2l-21.2-72.8C663.7,548.2,679.9,518.6,708.1,510.4z"/>
<path class="st5" d="M711.4,508.1l64.1-18.7c28.2-8.2,57.7,8,66,36.2l21.2,72.8c8.2,28.2-8,57.7-36.2,66L762.4,683
	c-28.2,8.2-57.7-8-66-36.2l-21.2-72.8C667,545.8,683.2,516.3,711.4,508.1z"/>
<linearGradient id="SVGID_3_" gradientUnits="userSpaceOnUse" x1="2170.6597" y1="2944.7031" x2="2170.6597" y2="2972.043" gradientTransform="matrix(0.8179 -0.5753 -0.5753 -0.8179 680.3551 4209.6523)">
	<stop  offset="0" style="stop-color:#808080;stop-opacity:0.25"/>
	<stop  offset="0.54" style="stop-color:#808080;stop-opacity:0.12"/>
	<stop  offset="1" style="stop-color:#808080;stop-opacity:0.1"/>
</linearGradient>
<circle class="st7" cx="753.9" cy="541.1" r="13.7"/>
<linearGradient id="SVGID_4_" gradientUnits="userSpaceOnUse" x1="2202.5496" y1="2876.3633" x2="2202.5496" y2="2903.7034" gradientTransform="matrix(0.8179 -0.5753 -0.5753 -0.8179 680.3572 4209.6484)">
	<stop  offset="0" style="stop-color:#808080;stop-opacity:0.25"/>
	<stop  offset="0.54" style="stop-color:#808080;stop-opacity:0.12"/>
	<stop  offset="1" style="stop-color:#808080;stop-opacity:0.1"/>
</linearGradient>
<circle class="st8" cx="819.3" cy="578.6" r="13.7"/>
<linearGradient id="SVGID_5_" gradientUnits="userSpaceOnUse" x1="2097.7595" y1="2903.7034" x2="2097.7595" y2="2931.0432" gradientTransform="matrix(0.8179 -0.5753 -0.5753 -0.8179 680.3551 4209.6421)">
	<stop  offset="0" style="stop-color:#808080;stop-opacity:0.25"/>
	<stop  offset="0.54" style="stop-color:#808080;stop-opacity:0.12"/>
	<stop  offset="1" style="stop-color:#808080;stop-opacity:0.1"/>
</linearGradient>
<circle class="st9" cx="717.9" cy="616.6" r="13.7"/>
<linearGradient id="SVGID_6_" gradientUnits="userSpaceOnUse" x1="2125.0896" y1="2835.363" x2="2125.0896" y2="2862.7031" gradientTransform="matrix(0.8179 -0.5753 -0.5753 -0.8179 680.3531 4209.6431)">
	<stop  offset="0" style="stop-color:#808080;stop-opacity:0.25"/>
	<stop  offset="0.54" style="stop-color:#808080;stop-opacity:0.12"/>
	<stop  offset="1" style="stop-color:#808080;stop-opacity:0.1"/>
</linearGradient>
<circle class="st10" cx="779.5" cy="656.7" r="13.7"/>
<circle class="st11" cx="753.9" cy="541.1" r="9.1"/>
<circle class="st11" cx="819.3" cy="578.6" r="9.1"/>
<circle class="st11" cx="717.9" cy="616.6" r="9.1"/>
<circle class="st11" cx="779.5" cy="656.7" r="9.1"/>
<path class="st2" d="M480.6,470.1h201l0,0v350.8l0,0h-201c-29.9,0-54.1-24.2-54.1-54.1V524.2C426.5,494.3,450.7,470.1,480.6,470.1z"
	/>
<path class="st3" d="M481,470.1h150.2c27.9,0,50.4,22.6,50.4,50.4c0,0,0,0,0,0v249.9c0,27.9-22.6,50.4-50.4,50.4H481
	c-30.1,0-54.5-24.4-54.5-54.5V524.6C426.5,494.5,450.9,470.1,481,470.1z"/>
<path class="st6" d="M581.9,470.1h87.8c9.4,0,17,7.6,17,17v316.8c0,9.4-7.6,17-17,17h-87.8l0,0V470.1L581.9,470.1z"/>
<path class="st2" d="M576.8,470.1h87.8c9.4,0,17,7.6,17,17v316.8c0,9.4-7.6,17-17,17h-87.8l0,0V470.1L576.8,470.1z"/>
<rect x="658.8" y="652.3" class="st2" width="314.4" height="86.6"/>
<rect x="973.7" y="652.8" class="st2" width="314.4" height="86.6"/>
<path class="st12" d="M685.4,652.3h261.2c14.7,0,26.6,11.9,26.6,26.6v33.4c0,14.7-11.9,26.6-26.6,26.6H685.4
	c-14.7,0-26.6-11.9-26.6-26.6v-33.4C658.8,664.2,670.7,652.3,685.4,652.3z"/>
<circle class="st2" cx="1009.9" cy="474.9" r="18.2"/>
<circle class="st3" cx="1009.9" cy="474.9" r="18.2"/>
<circle class="st2" cx="727.4" cy="474.9" r="18.2"/>
<circle class="st3" cx="727.4" cy="474.9" r="18.2"/>
<ellipse class="st13" cx="718.3" cy="371.9" rx="4.6" ry="6.8"/>
<path class="st12" d="M1000.3,652.8h261.2c14.7,0,26.6,11.9,26.6,26.6v33.4c0,14.7-11.9,26.6-26.6,26.6h-261.2
	c-14.7,0-26.6-11.9-26.6-26.6v-33.4C973.7,664.7,985.6,652.8,1000.3,652.8z"/>
<g class="st0">
	
		<linearGradient id="SVGID_7_" gradientUnits="userSpaceOnUse" x1="1161.1697" y1="713.9979" x2="1161.1697" y2="851.3279" gradientTransform="matrix(1 0 0 -1 -115 1263.9158)">
		<stop  offset="0" style="stop-color:#808080;stop-opacity:0.25"/>
		<stop  offset="0.54" style="stop-color:#808080;stop-opacity:0.12"/>
		<stop  offset="1" style="stop-color:#808080;stop-opacity:0.1"/>
	</linearGradient>
	<path class="st14" d="M1080.9,477.6c-2.1-11.5-4.2-23.1-9-33.8c-5.2-11.7-13.4-21.9-23.8-29.6c-1.5-1.2-3.4-1.7-5.4-1.6l0,0
		c-3,0.3-3.9,2.1-4.4,4c-0.1,0.2-0.1,0.4-0.2,0.7c-1.2,5.8-0.4,11.6,1.3,17.3c2.1,7.1,5.7,14,8.7,20.9c5.4,12.3,8.9,25.3,10.5,38.6
		c0.2,1.8,0.4,3.6,0.4,5.4c0,1.1,0,2.2-0.1,3.2c-0.1,2.1-0.6,4.2-1.4,6.1c-0.1,0.3-0.3,0.7-0.4,1c-0.2,0.3-0.3,0.7-0.5,0.9
		c-1.8,3-4.7,5.1-7.4,7.3s-5.9,4.4-9.3,5.5h0.1c-1.5,0.6-3.2,0.8-4.8,0.8c-5.1-0.2-10.6-4.3-15.8-3.3l0,0l-0.6,0.1
		c-5.3,1.4-9.3,9.7-9.4,15l0,0c0,0.4,0,0.8,0,1.2c0,0.1,0,0.3,0,0.4s0.1,0.5,0.1,0.8s0.1,0.3,0.1,0.5c0,0.2,0.1,0.5,0.2,0.7
		c0.1,0.2,0.1,0.3,0.1,0.5c0,0.2,0.1,0.4,0.2,0.6c0.1,0.2,0.1,0.3,0.2,0.4s0.2,0.4,0.3,0.6l0.2,0.4c0.1,0.2,0.2,0.3,0.3,0.5l0.3,0.4
		l0.3,0.5l0.3,0.4l0.4,0.4l0.3,0.3l0.4,0.4l0.3,0.3l0.5,0.4l0.4,0.3l0.5,0.3l0.4,0.3l0.6,0.3l0.4,0.2l0.6,0.3l0.4,0.2
		c0.3,0.1,0.6,0.3,0.9,0.4l0.5,0.2l0.7,0.3l0.5,0.2l0.6,0.2l0.6,0.2l0.6,0.1l0.6,0.1l0.5,0.1l0.7,0.1l0.5,0.1l0.7,0.1l0.5,0.1
		l0.7,0.1h0.5h0.7h0.5h0.8h1.6h0.8h0.3l0.9-0.1h0.2c2.5-0.2,5-0.8,7.3-1.6c7.5-2.8,13.8-8,19.7-13.4c11.6-10.8,22.6-24.1,23.6-39.9
		C1083,489,1081.9,483.3,1080.9,477.6z"/>
</g>
<rect x="937.4" y="473.8" class="st6" width="94.3" height="27.3"/>
<rect x="937.4" y="473.8" class="st2" width="94.3" height="24.8"/>
<circle class="st2" cx="992" cy="462.2" r="14.9"/>
<path class="st15" d="M963.9,485.1l-0.2-0.2c1.2-0.9,1.4-2.6,0.5-3.8c-0.2-0.2-0.3-0.4-0.5-0.5l0.2-0.2c1.3,1,1.5,2.9,0.5,4.2
	C964.3,484.8,964.1,484.9,963.9,485.1L963.9,485.1z"/>
<path class="st6" d="M963.9,485.1l-0.2-0.2c1.2-0.9,1.4-2.6,0.5-3.8c-0.2-0.2-0.3-0.4-0.5-0.5l0.2-0.2c1.3,1,1.5,2.9,0.5,4.2
	C964.3,484.8,964.1,484.9,963.9,485.1L963.9,485.1z"/>
<path class="st15" d="M963.8,485.1c-1.3-1-1.5-2.9-0.5-4.2c0.2-0.2,0.3-0.4,0.5-0.5l0.2,0.2c-1.2,0.9-1.4,2.6-0.5,3.8
	c0.2,0.2,0.3,0.4,0.5,0.5L963.8,485.1z"/>
<polyline class="st15" points="963.8,480.5 963.8,480.5 963.8,480.5 963.8,480.5 "/>
<path class="st16" d="M1040,565.2c6.8-2.6,12.6-7.3,18-12.3c10.6-9.8,20.7-22,21.5-36.5c0.3-5.3-0.6-10.5-1.6-15.8
	c-1.9-10.5-3.9-21.1-8.2-30.9c-4.8-10.7-12.3-20-21.7-27c-1.4-1.1-3.2-1.6-4.9-1.5c-3,0.3-3.8,2.3-4.2,4.3
	c-2.4,12,4.2,23.6,9.1,34.8c4.9,11.2,8.1,23.1,9.6,35.3c0.6,5.2,0.9,10.7-1.9,15.2c-1.7,2.7-4.3,4.7-6.8,6.6
	c-3.8,2.9-8,5.9-12.8,5.7s-10.1-4.2-15-2.9c-4.9,1.3-8.5,8.9-8.6,13.7C1012.7,567.2,1030.8,568.6,1040,565.2z"/>
<g class="st17">
	<path d="M1055.8,530.9c-1.7,2.7-4.3,4.7-6.8,6.6c-2.5,2.1-5.4,3.8-8.5,5c4.3-0.3,8.2-3,11.7-5.7c2.5-1.9,5.1-3.9,6.8-6.6
		c2.7-4.4,2.5-10,1.9-15.2c-1.5-12.2-4.7-24-9.6-35.3c-4.9-11.2-11.6-22.9-9.1-34.8c0.1-1.4,0.9-2.7,2-3.6c-0.4,0-0.7,0-1.1,0
		c-3,0.3-3.8,2.3-4.2,4.3c-2.4,12,4.2,23.6,9.1,34.8c4.9,11.2,8.1,23.1,9.6,35.3C1058.3,520.9,1058.6,526.5,1055.8,530.9z"/>
	<path d="M1016,553.4c0-4.5,3.2-11.3,7.5-13.3c-0.7,0-1.5,0.1-2.2,0.3c-4.8,1.3-8.5,8.9-8.6,13.7c-0.1,12.3,15.7,14.3,25.3,11.7
		C1028.5,567.2,1015.9,564.4,1016,553.4z"/>
</g>
<g class="st0">
	
		<linearGradient id="SVGID_8_" gradientUnits="userSpaceOnUse" x1="1085.0988" y1="631.5027" x2="1085.0988" y2="867.0186" gradientTransform="matrix(1 0 0 -1 -115 1263.9158)">
		<stop  offset="0" style="stop-color:#808080;stop-opacity:0.25"/>
		<stop  offset="0.54" style="stop-color:#808080;stop-opacity:0.12"/>
		<stop  offset="1" style="stop-color:#808080;stop-opacity:0.1"/>
	</linearGradient>
	<path class="st18" d="M946.3,416.7c0,0,27.2-5.5,40.9,0c0,0,8.2-19.1,16.3-19.1s10.9,30,10.9,30l10.9,43.6c0,0,51.8,92.6,0,141.6
		s-133.5-5.5-133.5-40.9s16.3-108.9,16.3-108.9s16.3-59.9,21.8-65.4S946.3,416.7,946.3,416.7z"/>
</g>
<path class="st16" d="M947.3,420.5c0,0,26.2-5.2,39.3,0c0,0,7.8-18.3,15.7-18.3s10.5,28.8,10.5,28.8l10.5,41.9c0,0,49.7,89,0,136.1
	c-49.8,47.2-128.3-5.2-128.3-39.3c0-34,15.7-104.7,15.7-104.7s15.7-57.6,21-62.8S947.3,420.5,947.3,420.5z"/>
<g class="st17">
	<path class="st19" d="M1041.5,521.8c-4-17-10.2-33.5-18.3-48.9l1.7,6.6C1031.9,493,1037.5,507.2,1041.5,521.8z"/>
	<path class="st19" d="M899.6,562.7c0-34,12.7-91.1,12.7-91.1s15.7-57.6,21-62.8s15.7,18.3,15.7,18.3s26.2-5.2,39.3,0
		c0,0,7.9-18.3,15.7-18.3c3,0,5.3,4.3,6.9,9.6c-1.6-7.8-4.3-16.3-8.6-16.3c-7.8,0-15.7,18.3-15.7,18.3c-13.1-5.2-39.3,0-39.3,0
		s-10.5-23.6-15.7-18.3c-5.2,5.2-21,62.8-21,62.8s-12.7,57-12.7,91.1C897.9,559.2,899.6,563.7,899.6,562.7z"/>
</g>
<circle class="st20" cx="998.3" cy="466.4" r="5.2"/>
<circle class="st20" cx="938.1" cy="466.4" r="5.2"/>
<ellipse class="st20" cx="969.5" cy="471.6" rx="7.8" ry="5.2"/>
<rect x="1013.7" y="462.4" transform="matrix(0.9762 -0.2168 0.2168 0.9762 -76.1266 233.4035)" class="st16" width="24.1" height="2.6"/>
<rect x="1013.8" y="472.9" transform="matrix(0.9807 -0.1954 0.1954 0.9807 -72.8624 209.8789)" class="st16" width="26.7" height="2.6"/>
<rect x="905.4" y="444.4" transform="matrix(0.3714 -0.9285 0.9285 0.3714 144.2573 1130.0592)" class="st16" width="2.6" height="28.2"/>
<rect x="901.5" y="451.8" transform="matrix(0.1521 -0.9884 0.9884 0.1521 301.9114 1289.9375)" class="st16" width="2.6" height="34.4"/>
<path class="st6" d="M963,505.1c-6.9,0-13.7-0.6-20.5-1.7c-13-2.2-25.5-6.7-36.9-13.3l0.9-4.2c11.6,6.3,24.1,10.7,37,13
	c18.8,3.2,51.3,2.3,84.2-15.9l2.2,4C1006,500.2,980.9,505.1,963,505.1z"/>
<path class="st5" d="M1027.8,482c-33,18.2-65.4,19.1-84.2,15.9c-12.9-2.3-25.4-6.7-37-13l-2.4,3.9c12,6.6,25,11.2,38.4,13.6
	c6.8,1.2,13.6,1.8,20.5,1.8c17.9,0,43-4.9,67-18.1L1027.8,482z M963.8,503.7c-0.3,0-0.5-0.2-0.5-0.5s0.2-0.5,0.5-0.5
	c0.3,0,0.5,0.2,0.5,0.5C964.3,503.5,964.1,503.7,963.8,503.7L963.8,503.7z"/>
<linearGradient id="SVGID_9_" gradientUnits="userSpaceOnUse" x1="1078.8336" y1="748.0279" x2="1078.8336" y2="758.1479" gradientTransform="matrix(1 0 0 -1 -115 1263.9158)">
	<stop  offset="0" style="stop-color:#FFFFFF"/>
	<stop  offset="1" style="stop-color:#000000"/>
</linearGradient>
<path class="st21" d="M958.8,510.8L958.8,510.8c0,2.8,2.3,5.1,5.1,5.1l0,0c2.8,0,5.1-2.3,5.1-5.1l0,0c0-2.8-2.3-5.1-5.1-5.1l0,0
	C961,505.8,958.8,508,958.8,510.8z M963.8,508.3c-0.5,0-0.8-0.4-0.8-0.8s0.4-0.8,0.8-0.8c0.5,0,0.8,0.4,0.8,0.8
	C964.7,507.9,964.3,508.3,963.8,508.3L963.8,508.3z"/>
<path class="st15" d="M959.3,510.8L959.3,510.8c0,2.5,2,4.6,4.6,4.6l0,0c2.5,0,4.6-2,4.6-4.6l0,0c0-2.5-2-4.6-4.6-4.6l0,0
	C961.3,506.3,959.3,508.3,959.3,510.8z M963.8,508.5c-0.4,0-0.8-0.3-0.8-0.8s0.3-0.8,0.8-0.8c0.4,0,0.8,0.3,0.8,0.8
	S964.3,508.5,963.8,508.5L963.8,508.5z"/>
<path class="st16" d="M1021,483.5c-69.7,41-109.8,3-109.8,3L1021,483.5z"/>
<linearGradient id="SVGID_10_" gradientUnits="userSpaceOnUse" x1="1021.1279" y1="370.1038" x2="1021.1279" y2="994.3647" gradientTransform="matrix(1 0 0 -1 -115 1263.9158)">
	<stop  offset="0" style="stop-color:#808080;stop-opacity:0.25"/>
	<stop  offset="0.54" style="stop-color:#808080;stop-opacity:0.12"/>
	<stop  offset="1" style="stop-color:#808080;stop-opacity:0.1"/>
</linearGradient>
<path class="st22" d="M1212.2,684.9c-4.3-12.1-50,22-50,22l-10.6-0.6l-20.3-18.8l14.2-14.2L1026.3,571c-6.4-5.5-14.9-8.1-23.3-7
	l-99.1,12.4c-0.4-5.7-3.9-12.4-8.9-19.3c-10.2-16.7-31.6-35.5-39.5-42.2l-12.1-81.5l10.3-15.4c-1.9-0.5-3.8-1.1-5.6-1.9l2.2-3.3
	l-0.8-0.2l1-1.2h-0.1l25.6-29.6c3.9-4.6,3.6-11.4-0.8-15.6l-57.3-43.5c1.7-4.1,2.6-8.6,2.4-13.1c0.5-8.6-3.4-17.4-16.4-23.9
	c-8-3.8-16.4-6.8-25.1-8.9c-14.3-3.7-29.2-3.4-43.4,0.6c-0.2-0.3-0.5-0.6-0.7-0.9c-17.6-20.1-40.7,8.8-41.6,10l-90.3,100.5
	c-5.1,8.1-3.1,18.7,4.5,24.5l47.8,35.9l-0.2,0.3l2.7,2c-2,4-4.8,6.7-8.4,7.1l7.3,3.7c-1.2,0.8-2.5,1.3-3.9,1.5l33.5,16.8
	c0,17.4,1.8,97.2,30.1,136.3c2.9,4.8,6.4,9.3,10.3,13.3c0,0,2.4-1.3,6.8-3.4l5.1,10.1c11.4,22.8,36.1,35.8,61.4,32.1l157.3-22.5
	l-1.7,5l0.9-0.1l-51,153l8.4,2.8l-0.2,0.3l1.2,0.5l-10.6,20l-33.4,25.7c0,0,97.6,48.8,107.9,41.1s-36-41.1-36-41.1l-2.6-10.3
	l11.2-23.7l9.4,3.1l75.6-151.2l0,0l2.6-5.1l51.2,64l14.4-14.4l1.6,1.6l0.1-0.1l20,20.2l14.5,39.5
	C1140.7,775.5,1216.5,697,1212.2,684.9z M815.2,390.8l-1-1.2c-6.1,7.6-16.9,16.9-28.9,23.1v-8.4l0.6-0.5v-3.7
	c15.5-14.3,21.6-36.1,15.7-56.4l33.2,25.5L815.2,390.8z M702.5,296l-0.8-0.8L702.5,296L702.5,296z M675.9,349.5
	c-0.2,2.7-0.3,5.4-0.3,8c-0.1,3.9,0.2,7.8,0.7,11.7c1.7,13.6,6.6,24.7,16.6,30c8.7,4.6,14.5,4.4,18.1,1.2l0.4,0.4
	c0.3,5.3,1.7,10.5,4.1,15.3c-18.7-3.9-36.6-11.1-52.8-21.3c0,0,0.1,0.7,0.1,1.9L649.1,383L675.9,349.5z"/>
<polygon class="st13" points="926.6,776.8 904.2,819.2 939.1,834.2 961.6,786.8 "/>
<path class="st23" d="M939.1,834.2l2.5,10c0,0,44.9,32.4,34.9,39.9s-104.8-39.9-104.8-39.9l32.4-25L939.1,834.2z"/>
<polygon class="st6" points="959.2,791.2 923.8,779.4 913.3,799.3 948.3,814.2 "/>
<polygon class="st13" points="1086.2,697.4 1119.9,731.5 1144.6,702.7 1106.2,667.1 "/>
<polygon class="st6" points="1107.5,668.7 1087.6,699.1 1100.3,712 1126.3,686.1 "/>
<path class="st23" d="M1144.6,702.7l10.3,0.6c0,0,44.4-33.1,48.5-21.3c4.2,11.8-69.5,88-69.5,88l-14.1-38.4L1144.6,702.7z"/>
<path class="st13" d="M824.9,447.4l51.8-60c3.8-4.4,3.5-11.1-0.8-15.1l-112.8-85.5l-13.7,21.4l87.4,67.3l-37.1,40.7L824.9,447.4z"/>
<path class="st6" d="M819,395.2l-18.1,19.9l25.2,31.3l26-30.1C839.4,412.3,827.9,405,819,395.2z"/>
<path class="st13" d="M674.5,460.4l-58.7-44c-7.4-5.6-9.3-15.9-4.4-23.8l87.8-97.7l18,18l-60.7,75.6l35.9,35.9L674.5,460.4z"/>
<path class="st6" d="M662.1,451.6l9.6,7.2l18-35.9l-22.6-22.5C667.5,408,668.9,437.7,662.1,451.6z"/>
<polygon class="st15" points="959.2,634.7 905.3,796.3 959.2,814.2 1048.9,634.7 977.1,616.7 "/>
<polygon class="st6" points="956.7,639.7 954,647.8 1010.5,639.7 1032.6,667.3 1046.4,639.7 974.6,621.7 "/>
<path class="st13" d="M699.1,295.1c0,0,23-29.7,40.5-9.7c17.5,20-27.4,22.4-27.4,22.4L699.1,295.1z"/>
<path class="st15" d="M725.8,598.8l17.3,34.7c11.1,22.2,35.1,34.7,59.6,31.2l210.3-30l71.8,89.8l53.8-53.9l-115.8-99.3
	c-6.3-5.4-14.5-7.8-22.6-6.8L725.8,598.8z"/>
<path class="st6" d="M673,405.1c0,0,4.7,58.3-13.2,60.3l35.9,18c0,0-2,105.7,35.9,143.6c0,0,69.8-37.9,143.6-35.9s-18-71.8-18-71.8
	l-12.1-81.7l10-15c-13.5-4-25.6-11.8-34.9-22.4l0,0c-10,12.5-32.9,29.4-52.7,29.4h-8.6c-29.6,0-61-6-85.9-21.9L673,405.1z"/>
<path class="st24" d="M669.7,400.2c0,0,4.8,58.3-13.2,60.3l35.9,18c0,0-2,105.7,35.9,143.6c0,0,69.8-37.9,143.6-35.9
	s-18-71.8-18-71.8l-12.1-81.7l10-15c-13.5-4-25.6-11.8-34.9-22.4l0,0c-10,12.5-32.9,29.4-52.7,29.4h-8.6
	C726,424.6,694.6,416.1,669.7,400.2L669.7,400.2z"/>
<path class="st13" d="M717,383.7v20c0,10.2,4,19.9,11.2,27.1l42.6,42.6L785,445c2.5-4.9,3.8-10.4,3.8-15.9v-45.4H717z"/>
<path class="st6" d="M717.5,406.8c0,0.7,0,1.5,0.1,2.2c20.4,18.2,51.3,18.2,71.7-0.1v-22.2h-71.8V406.8z"/>
<circle class="st13" cx="752.9" cy="365.8" r="53.9"/>
<path class="st6" d="M717,350.6h89.8c0,0,35.9-35.9,0-53.9c-7.8-3.7-16-6.6-24.4-8.6c-54.6-13.8-106.5,31.3-99.5,87.2
	c1.7,13.2,6.4,24,16.1,29.1C736.9,424.4,717,350.6,717,350.6z"/>
<path class="st23" d="M717,348.1h89.8c0,0,35.9-35.9,0-53.9c-7.8-3.7-16-6.6-24.4-8.6c-54.6-13.8-106.5,31.3-99.5,87.2
	c1.7,13.2,6.4,24,16.1,29.1C736.9,421.9,717,348.1,717,348.1z"/>
<ellipse class="st13" cx="719.6" cy="366.5" rx="5" ry="8.7"/>
<polygon class="st6" points="692.2,477.5 694.7,470 702.1,475 "/>
<path class="st6" d="M854,514.4c0,0-27.2,13-34.7,25.5"/>
<polygon class="st6" points="841.8,432.6 839.3,440.1 834.3,432.6 "/>
<path class="st23" d="M717,348.1h89.8c0,0,35.9-35.9,0-53.9c-7.8-3.7-16-6.6-24.4-8.6c-54.6-13.8-106.5,31.3-99.5,87.2
	c1.7,13.2,6.4,24,16.1,29.1C736.9,421.9,717,348.1,717,348.1z"/>
<path class="st6" d="M958.5,549.7c0,0,18.2,39.6-5.7,43c-23.9,3.4-13-33.2-13-33.2s-2.4-10.8-8.2-11.5"/>
<path class="st6" d="M980.5,548.8c0,0-21.7,37.8,1.9,43.3s15.9-31.9,15.9-31.9s3.3-10.6,9.2-10.7"/>
<path class="st16" d="M956.4,548.6c0,0,18.2,39.6-5.7,43c-23.9,3.4-13-33.2-13-33.2s-2.4-10.9-8.2-11.5"/>
<path class="st16" d="M982.2,547.1c0,0-21.7,37.8,1.9,43.3s15.9-31.9,15.9-31.9s3.3-10.6,9.2-10.7"/>
<rect x="943" y="583.4" class="st25" width="0.4" height="7.7"/>
<rect x="949.6" y="583.4" class="st25" width="0.4" height="7.7"/>
<rect x="946" y="580.9" class="st25" width="0.4" height="10.8"/>
<rect x="986" y="581.7" class="st25" width="0.4" height="7.7"/>
<rect x="992.6" y="581.7" class="st25" width="0.4" height="7.7"/>
<rect x="989" y="579.3" class="st25" width="0.4" height="10.8"/>
<g class="st0">
	
		<linearGradient id="SVGID_11_" gradientUnits="userSpaceOnUse" x1="1602.6116" y1="1440.5315" x2="1602.6116" y2="1535.7115" gradientTransform="matrix(0.9481 -0.318 -0.318 -0.9481 -88.4186 2911.0298)">
		<stop  offset="0" style="stop-color:#808080;stop-opacity:0.25"/>
		<stop  offset="0.54" style="stop-color:#808080;stop-opacity:0.12"/>
		<stop  offset="1" style="stop-color:#808080;stop-opacity:0.1"/>
	</linearGradient>
	<circle class="st26" cx="957.8" cy="990.6" r="47.6"/>
</g>
<circle class="st5" cx="957.8" cy="990.6" r="44.5"/>
<g class="st0">
	
		<linearGradient id="SVGID_12_" gradientUnits="userSpaceOnUse" x1="1499.5056" y1="1469.2574" x2="1499.5056" y2="1650.548" gradientTransform="matrix(0.9481 -0.318 -0.318 -0.9481 -88.3631 2911.0276)">
		<stop  offset="0" style="stop-color:#808080;stop-opacity:0.25"/>
		<stop  offset="0.54" style="stop-color:#808080;stop-opacity:0.12"/>
		<stop  offset="1" style="stop-color:#808080;stop-opacity:0.1"/>
	</linearGradient>
	<path class="st27" d="M839.3,1050.2c-6.4,2.2-14.4,0.6-17.3-5.5c-1.7-3.6-1.3-7.5-0.9-11.4c0.4-4.2,0.8-7.8-1.6-10.2
		c-1.2-1-2.7-1.8-4.2-2.2c-2-0.7-4.2-1.2-6.2-1.8c-3.7-0.8-7.3-2-10.7-3.5c-6.8-3.2-11.1-8.6-11.6-14.4c-0.4-5,2-9.6,4.3-13.9
		s4.6-8.7,3.5-13c-1.5-5.8-8.4-8.5-14.6-11l-1-0.4c-7.5-3-15.5-9.3-13.5-17.5c0.7-2.8,2.5-5,4.2-7c1.2-1.3,2.2-2.7,3-4.3
		c2.7-5.7-1-12.3-2.6-14.8c-1.3-2-2.8-3.8-4.3-5.7c-2.3-2.7-4.4-5.6-6.1-8.7l-0.3-0.5c-4.1-7.7-4.1-8-3.8-16.4v-1l3.5,0.1v1
		c-0.3,7.6-0.3,7.6,3.4,14.6l0.3,0.5c1.6,2.9,3.6,5.6,5.8,8.1c1.5,1.9,3.1,3.8,4.5,5.9c4.3,6.5,5.3,13.2,2.9,18.3
		c-1,1.8-2.1,3.5-3.5,5c-1.5,1.8-3,3.6-3.5,5.6c-1.6,6.3,6.4,11.3,11.4,13.3l1,0.4c6.6,2.6,14.8,5.8,16.7,13.4
		c1.4,5.6-1.2,10.6-3.8,15.5c-2.2,4.1-4.2,8-3.9,12c0.4,5.4,5.3,9.5,9.6,11.5c3.3,1.4,6.6,2.5,10.1,3.3c2.1,0.5,4.3,1.1,6.5,1.8
		c2.1,0.6,4,1.6,5.6,3.1c3.6,3.5,3.1,8.4,2.6,13.1c-0.4,3.5-0.7,6.8,0.6,9.5c2.3,4.8,9.5,5.5,14.5,3.1c4.1-1.9,7.3-5.2,10.7-8.6
		c1.1-1.1,2.2-2.3,3.4-3.4c6.3-6,12.8-8.6,18.5-7.6c1.8,0.4,3.6,1,5.3,1.7c1.3,0.6,2.7,1.1,4.1,1.4c6.5,1.2,12.9-2.9,14.5-9.3
		c0.1-0.6,0.2-1.2,0.3-1.9c0.3-2.1,0.7-4.4,2.3-6.3s4.3-2.5,6.2-2.9l19.3-4.5l0.8,3.5l-19.3,4.5c-1.8,0.4-3.4,0.9-4.3,1.9
		s-1.2,2.7-1.4,4.4c-0.1,0.7-0.2,1.4-0.4,2.1c-2.1,8.3-10.3,13.6-18.8,12c-1.6-0.4-3.2-0.9-4.7-1.6c-1.5-0.7-3-1.2-4.6-1.5
		c-5.9-1-11.7,3.1-15.5,6.7c-1.1,1.1-2.2,2.2-3.3,3.3c-3.5,3.5-7,7.2-11.7,9.4C840.5,1049.7,839.9,1050,839.3,1050.2z"/>
</g>
<path class="st5" d="M839.8,1048.5c-6.4,2.2-14.4,0.6-17.3-5.5c-1.7-3.6-1.3-7.5-0.9-11.4c0.4-4.2,0.8-7.8-1.6-10.2
	c-1.2-1-2.7-1.8-4.2-2.2c-2-0.7-4.2-1.2-6.2-1.8c-3.7-0.8-7.3-2-10.7-3.5c-6.8-3.2-11.1-8.6-11.6-14.4c-0.4-5,2-9.6,4.3-13.9
	s4.6-8.7,3.5-13c-1.5-5.8-8.4-8.5-14.6-11l-1-0.4c-7.5-3-15.5-9.3-13.5-17.5c0.7-2.8,2.5-5,4.2-7c1.2-1.3,2.2-2.7,3-4.3
	c2.7-5.7-1-12.3-2.6-14.8c-1.3-2-2.8-3.8-4.3-5.7c-2.3-2.7-4.4-5.6-6.1-8.7l-0.3-0.5c-4.1-7.7-4.1-8-3.8-16.4v-1l3.5,0.1v1
	c-0.3,7.6-0.3,7.6,3.4,14.6l0.3,0.5c1.6,2.9,3.6,5.6,5.8,8.1c1.5,1.9,3.1,3.8,4.5,5.9c4.3,6.5,5.3,13.2,2.9,18.3
	c-1,1.8-2.1,3.5-3.5,5c-1.5,1.8-3,3.6-3.5,5.6c-1.6,6.3,6.4,11.3,11.4,13.3l1,0.4c6.6,2.6,14.8,5.8,16.7,13.4
	c1.4,5.6-1.2,10.6-3.8,15.5c-2.2,4.1-4.2,8-3.9,12c0.4,5.4,5.3,9.5,9.6,11.5c3.3,1.4,6.6,2.5,10.1,3.3c2.1,0.5,4.3,1.1,6.5,1.8
	c2.1,0.6,4,1.6,5.6,3.1c3.6,3.5,3.1,8.4,2.6,13.1c-0.4,3.5-0.7,6.8,0.6,9.5c2.3,4.8,9.5,5.5,14.5,3.1c4.1-1.9,7.3-5.2,10.7-8.6
	c1.1-1.1,2.2-2.3,3.4-3.4c6.3-6,12.8-8.6,18.5-7.6c1.8,0.4,3.6,1,5.3,1.7c1.3,0.6,2.7,1.1,4.1,1.4c6.5,1.2,12.9-2.9,14.5-9.3
	c0.1-0.6,0.2-1.2,0.3-1.9c0.3-2.1,0.7-4.4,2.3-6.3s4.3-2.5,6.2-2.9l19.3-4.5l0.8,3.5l-19.3,4.5c-1.8,0.4-3.4,0.9-4.3,1.9
	s-1.2,2.7-1.4,4.4c-0.1,0.7-0.2,1.4-0.4,2.1c-2.1,8.3-10.3,13.6-18.8,12c-1.6-0.4-3.2-0.9-4.7-1.6c-1.5-0.7-3-1.2-4.6-1.5
	c-5.9-1-11.7,3.1-15.5,6.7c-1.1,1.1-2.2,2.2-3.3,3.3c-3.5,3.5-7,7.2-11.7,9.4C841,1048,840.4,1048.2,839.8,1048.5z"/>
<path class="st28" d="M955.3,958.8c0,0,24.7-3.7,36.7,30.7"/>
<path class="st28" d="M928,1013.6c0,0-18.3-25.9,14.3-54.5"/>
<path class="st28" d="M935.5,1004.2c0,0-8.8-13.6,0.4-25.8"/>
<path class="st28" d="M951.3,973.2c0,0,11.7,4.6,13.3,25.4"/>
<path class="st28" d="M965,948.9c0,0,18.3,3.5,31,28.6"/>
<path class="st28" d="M941.5,956.8c0,0,8.6-6.1,16.6-2.9"/>
<path class="st28" d="M948,1014.4c0,0,11.5,7.3,41.3-13.8"/>
<path class="st28" d="M945.9,1029c0,0,7.2,7.2,22.3,1.1"/>
<path class="st28" d="M924.5,965.1c-6.3,9.3-8.2,20.9-5.4,31.7"/>
<path class="st28" d="M934.2,1011.5c0,0-1,6.7,6.6,10.1"/>
<path class="st28" d="M994.1,1003.7c0,0-0.5,13-7.7,13.8"/>
<path class="st28" d="M954.6,1022.9c8.8,1.2,17.7-1.8,24-8"/>
<path class="st28" d="M965.7,976.4c0,0,6.3,4.3,5.6,12"/>
<path class="st28" d="M941.9,984.9c0,0-1.7,9.1,2.8,14.6"/>
<path class="st28" d="M947.1,983.2c0,0,6.4,8,4.7,13.9"/>
<g>
	<path class="st29" d="M1044.8,52.9H697.4c-15.7,0-28.4,10.5-28.4,23.3v103.7c0,12.9,12.7,23.3,28.4,23.3h347.4
		c15.7,0,28.4-10.5,28.4-23.3V76.2C1073.2,63.3,1060.4,52.9,1044.8,52.9z"/>
	<path class="st30" d="M1044.8,182.2H697.4c-15.7,0-28.4-10.5-28.4-23.3v21c0,12.9,12.7,23.3,28.4,23.3h347.4
		c15.7,0,28.4-10.5,28.4-23.3v-21C1073.2,171.7,1060.4,182.2,1044.8,182.2z"/>
	<path class="st2" d="M740.5,180.8v17.5c0,2.7,2.2,4.9,4.9,4.9h252.1c2.7,0,4.9-2.2,4.9-4.9v-17.5H740.5z"/>
	<rect x="719.6" y="175.2" class="st31" width="308.5" height="9.7"/>
	<path class="st32" d="M997.5,92.5h-14.4c-2.7,0-4.9-2.2-4.9-4.9c0-2.7,2.2-4.9,4.9-4.9h14.4c2.7,0,4.9,2.2,4.9,4.9
		C1002.4,90.3,1000.2,92.5,997.5,92.5z"/>
	<path class="st32" d="M960.9,92.5h-92.2c-2.7,0-4.9-2.2-4.9-4.9c0-2.7,2.2-4.9,4.9-4.9h92.2c2.7,0,4.9,2.2,4.9,4.9
		C965.8,90.3,963.6,92.5,960.9,92.5z"/>
	<g>
		<path class="st2" d="M781.5,254.2c-1.5,0-3-0.7-4-2c-1.6-2.2-1-5.2,1.1-6.8c13.5-9.6,13.7-24,13.7-24.2c0-2.7,2.2-4.9,4.9-4.9
			c2.7,0,4.9,2.2,4.9,4.9c0,0.8-0.2,19.6-17.8,32.1C783.4,253.9,782.4,254.2,781.5,254.2z"/>
		<path class="st2" d="M832.1,254.2c-2.7,0-4.9-2.2-4.9-4.9v-28.2c0-2.7,2.2-4.9,4.9-4.9c2.7,0,4.9,2.2,4.9,4.9v28.2
			C836.9,252,834.8,254.2,832.1,254.2z"/>
		<path class="st2" d="M872.8,254.2c-2.7,0-4.9-2.2-4.9-4.9v-28.2c0-2.7,2.2-4.9,4.9-4.9s4.9,2.2,4.9,4.9v28.2
			C877.7,252,875.5,254.2,872.8,254.2z"/>
		<path class="st2" d="M961.5,254.2c-1,0-2-0.3-2.8-0.9c-17.6-12.5-17.8-31.3-17.8-32.1c0-2.7,2.2-4.9,4.9-4.9
			c2.7,0,4.9,2.2,4.9,4.8c0,0.6,0.3,14.7,13.7,24.2c2.2,1.6,2.7,4.6,1.1,6.8C964.5,253.5,963,254.2,961.5,254.2z M950.6,221.1
			L950.6,221.1L950.6,221.1z"/>
		<path class="st2" d="M910,254.2c-2.2,0-4-2.2-4-4.9v-28.2c0-2.7,1.8-4.9,4-4.9c2.2,0,4,2.2,4,4.9v28.2
			C914,252,912.2,254.2,910,254.2z"/>
	</g>
</g>
<g id="Page-1">
	<g>
		<path id="Shape" class="st33" d="M265.6,211.5v88.7h-209v-69.7c0-10.5,8.5-19,19-19H265.6z"/>
		<path class="st34" d="M347.9,230.5v69.7h-95v-88.7h76C339.4,211.5,347.9,220,347.9,230.5z"/>
		<path class="st29" d="M347.9,287.5v272.3c0,10.5-8.5,19-19,19H75.6c-10.5,0-19-8.5-19-19V287.5H347.9z"/>
		<path class="st35" d="M270.6,350c-11,5.7-23.2,12.3-35.9,19.8c-2.6,1.5-5.3,3.1-7.9,4.7c-7.4,4.5-14.9,9.2-22.4,14.2
			c-16.2,10.6-31.7,22.3-46.4,34.8c-9,7.7-17.6,15.8-25.7,24.5c-2.5-1.6-5.3-2.3-8.2-2.3c-13.2,0-13,12.9-26.4,12.5
			c-10.8-45,8.3-91.9,47.5-116.4C184.3,317.4,234.8,320.7,270.6,350L270.6,350z"/>
		<path class="st36" d="M309.9,433.2c0,8.5-1,17-3,25.3c-13.5,0.3-13.4-12.7-26.5-12.7c-13.1,0-13,12.7-26.1,12.7s-13-12.7-26-12.7
			c-13,0-13,12.7-26.1,12.7c-8,0-11.1-4.7-15.2-8.4c-2.9-2.8-6.8-4.3-10.9-4.2c-13,0-13,12.7-26.1,12.7c-9.4,0-12-6.7-17.8-10.4
			c39.3-42.2,96.9-76.6,138.4-98.1c4.4,3.6,8.6,7.6,12.3,11.9C300.3,381.6,309.9,406.9,309.9,433.2z"/>
		<circle id="Oval" class="st37" cx="100.9" cy="249.5" r="12.7"/>
		<path class="st38" d="M322.6,255.9h-44.3c-3.5,0-6.3-2.8-6.3-6.3s2.8-6.3,6.3-6.3h44.3c3.5,0,6.3,2.8,6.3,6.3
			S326.1,255.9,322.6,255.9z"/>
		<circle class="st39" cx="138.9" cy="249.5" r="6.3"/>
		<circle class="st39" cx="164.2" cy="249.5" r="6.3"/>
		<circle class="st40" cx="189.6" cy="249.5" r="6.3"/>
		<path class="st41" d="M270.3,394.4l-10.1,15.3c-1,1.5-2.5,2.4-4.2,2.7c-1.7,0.3-3.5-0.2-4.9-1.2l-4.5-3.4v63.3l-88.7-0.1v-47.5
			c14.7-12.6,30.2-24.2,46.4-34.8c9.6,0.1,18.4-5.5,22.4-14.2c2.7-1.6,5.3-3.2,7.9-4.7h9.9c1.3,0,2.6,0.4,3.7,1.2l20.5,14.6
			C271.5,387.7,272.2,391.5,270.3,394.4L270.3,394.4z"/>
		<path class="st42" d="M202.2,388.8c0.7,0,1.4,0,2.1-0.1c-16.2,10.6-31.7,22.3-46.4,34.8v-15.8l-4.5,3.4c-1.4,1.1-3.2,1.5-4.9,1.2
			c-1.7-0.3-3.3-1.3-4.2-2.7l-10.1-15.3c-1.9-2.8-1.2-6.7,1.6-8.7l20.5-14.6c1.1-0.8,2.3-1.2,3.7-1.2h11.2c2.9-0.1,5.5,1.7,6.5,4.4
			C181.9,383.8,191.8,389.7,202.2,388.8L202.2,388.8z"/>
		<path class="st42" d="M234.7,369.8c-2.6,1.5-5.3,3.1-7.9,4.7c0.1-0.1,0.1-0.2,0.1-0.3c1-2.7,3.6-4.5,6.5-4.4H234.7z"/>
		<path class="st43" d="M132.2,448.1c-9.8,10.4-18.5,21.7-26,33.9c-3.8-7.5-6.7-15.4-8.7-23.6c13.4,0.3,13.2-12.5,26.4-12.5
			C126.9,445.8,129.7,446.6,132.2,448.1z"/>
		<path class="st44" d="M306.9,458.5c-9.3,38.3-38.7,68.4-76.7,78.6c-38,10.2-78.6-1.1-105.8-29.6c-7.3-7.6-13.5-16.2-18.2-25.6
			c7.5-12.1,16.2-23.5,26-33.9c5.8,3.7,8.4,10.4,17.8,10.4c13,0,13-12.7,26.1-12.7c4,0,7.9,1.5,10.9,4.2c4.1,3.7,7.2,8.4,15.2,8.4
			c13,0,13-12.7,26.1-12.7c13,0,13,12.7,26,12.7c13,0,13-12.7,26.1-12.7S293.4,458.8,306.9,458.5L306.9,458.5z"/>
		<path class="st45" d="M202.2,547.2c-63,0-114-51-114-114s51-114,114-114s114,51,114,114C316.2,496.1,265.2,547.1,202.2,547.2z
			 M202.2,331.8c-56,0-101.3,45.4-101.3,101.3s45.4,101.3,101.3,101.3s101.3-45.4,101.3-101.3C303.5,377.2,258.2,331.9,202.2,331.8z
			"/>
	</g>
</g>
<path class="st45" d="M1502,506.1v17.5c0,3.1-2.5,5.7-5.7,5.7h-22.6c-3.1,0-5.7-2.5-5.7-5.7v-20.1L1502,506.1z"/>
<path class="st45" d="M1581.3,503.5v20.1c0,3.1-2.5,5.7-5.7,5.7H1553c-3.1,0-5.7-2.5-5.7-5.7v-17.5L1581.3,503.5z"/>
<path class="st46" d="M1632.3,221.2v265c0,5.4-3.8,10.1-9.2,11.2c-65,12.3-131.8,12.3-196.8,0c-5.3-1-9.2-5.7-9.2-11.2v-265
	c0-5.4,3.8-10.1,9.2-11.2c12-2.3,24-4.1,36.1-5.5v92.6c0,34.4,27.9,62.3,62.3,62.3c34.4,0,62.3-27.9,62.3-62.3v-92.6
	c12.1,1.4,24.1,3.3,36.1,5.5C1628.4,211.1,1632.3,215.8,1632.3,221.2z"/>
<path class="st45" d="M1587,204.5v92.6c0,34.4-27.9,62.3-62.3,62.3c-34.4,0-62.3-27.9-62.3-62.3v-92.6
	C1503.8,199.6,1545.6,199.6,1587,204.5z"/>
<path class="st47" d="M1564.3,297.1c0,21.9-17.7,39.6-39.6,39.6c-21.9,0-39.6-17.7-39.6-39.6c0-21.9,17.7-39.6,39.6-39.6
	C1546.6,257.4,1564.3,275.2,1564.3,297.1z"/>
<path class="st33" d="M1524.7,342.4c-25,0-45.3-20.3-45.3-45.3c0-25,20.3-45.3,45.3-45.3c25,0,45.3,20.3,45.3,45.3
	C1569.9,322.1,1549.7,342.3,1524.7,342.4z M1524.7,263.1c-18.8,0-34,15.2-34,34c0,18.8,15.2,34,34,34c18.8,0,34-15.2,34-34
	C1558.6,278.3,1543.4,263.1,1524.7,263.1z"/>
<path class="st48" d="M1524.7,302.7c-2.1,0-4-1.2-5-3c-1-1.8-0.9-4.1,0.3-5.8l11.3-17c1.1-1.7,3.1-2.7,5.1-2.6
	c2,0.1,3.8,1.3,4.7,3.2c0.9,1.8,0.7,4-0.4,5.7l-11.3,17C1528.3,301.8,1526.6,302.7,1524.7,302.7z"/>
<path class="st49" d="M1496.4,387.7h56.6c3.1,0,5.7,2.5,5.7,5.7V416c0,3.1-2.5,5.7-5.7,5.7h-56.6c-3.1,0-5.7-2.5-5.7-5.7v-22.6
	C1490.7,390.2,1493.2,387.7,1496.4,387.7z"/>
<path class="st19" d="M1439.7,387.7c-3.1,0-5.7-2.5-5.7-5.7v-5.7c0-3.1,2.5-5.7,5.7-5.7c3.1,0,5.7,2.5,5.7,5.7v5.7
	C1445.4,385.1,1442.9,387.7,1439.7,387.7z"/>
<path class="st19" d="M1439.7,478.3c-3.1,0-5.7-2.5-5.7-5.7v-67.9c0-3.1,2.5-5.7,5.7-5.7c3.1,0,5.7,2.5,5.7,5.7v67.9
	C1445.4,475.7,1442.9,478.3,1439.7,478.3z"/>
<g>
	<path class="st50" d="M1490.7,450h-11.3c-3.1,0-5.7-2.5-5.7-5.7c0-3.1,2.5-5.7,5.7-5.7h11.3c3.1,0,5.7,2.5,5.7,5.7
		C1496.4,447.4,1493.8,450,1490.7,450z"/>
	<path class="st50" d="M1490.7,472.6h-11.3c-3.1,0-5.7-2.5-5.7-5.7c0-3.1,2.5-5.7,5.7-5.7h11.3c3.1,0,5.7,2.5,5.7,5.7
		C1496.4,470.1,1493.8,472.6,1490.7,472.6z"/>
	<path class="st50" d="M1570,450h-11.3c-3.1,0-5.7-2.5-5.7-5.7c0-3.1,2.5-5.7,5.7-5.7h11.3c3.1,0,5.7,2.5,5.7,5.7
		C1575.6,447.4,1573.1,450,1570,450z"/>
	<path class="st50" d="M1570,472.6h-11.3c-3.1,0-5.7-2.5-5.7-5.7c0-3.1,2.5-5.7,5.7-5.7h11.3c3.1,0,5.7,2.5,5.7,5.7
		C1575.6,470.1,1573.1,472.6,1570,472.6z"/>
</g>
</svg>
