<?xml version="1.0" encoding="utf-8"?>
<!-- Generator: Adobe Illustrator 23.1.0, SVG Export Plug-In . SVG Version: 6.00 Build 0)  -->
<svg version="1.1" id="c8a8ddad-a781-47c5-a247-afce95df410f"
	 xmlns="http://www.w3.org/2000/svg" xmlns:xlink="http://www.w3.org/1999/xlink" x="0px" y="0px" viewBox="0 0 1002.7 1530.2"
	 style="enable-background:new 0 0 1002.7 1530.2;" xml:space="preserve">
<style type="text/css">
	.st0{opacity:0.5;}
	.st1{fill:url(#SVGID_1_);}
	.st2{fill:#448AFF;}
	.st3{opacity:0.3;enable-background:new    ;}
	.st4{fill:url(#SVGID_2_);}
	.st5{fill:#F55F44;}
	.st6{opacity:0.1;enable-background:new    ;}
	.st7{fill:url(#SVGID_3_);}
	.st8{fill:url(#SVGID_4_);}
	.st9{fill:url(#SVGID_5_);}
	.st10{fill:url(#SVGID_6_);}
	.st11{fill:#F99F8F;}
	.st12{opacity:0.15;fill:#FFFFFF;enable-background:new    ;}
	.st13{fill:#FDA57D;}
	.st14{fill:url(#SVGID_7_);}
	.st15{fill:#4D8AF0;}
	.st16{fill:#FFD180;}
	.st17{opacity:0.1;}
	.st18{fill:url(#SVGID_8_);}
	.st19{fill:#FFFFFF;}
	.st20{fill:#58555D;}
	.st21{opacity:0.1;fill:url(#SVGID_9_);enable-background:new    ;}
	.st22{fill:url(#SVGID_10_);}
	.st23{fill:#333333;}
	.st24{fill:#3AD29F;}
	.st25{opacity:0.5;fill:#58555D;enable-background:new    ;}
	.st26{fill:url(#SVGID_11_);}
	.st27{fill:url(#SVGID_12_);}
	.st28{opacity:0.2;fill:none;stroke:#000000;stroke-miterlimit:10;enable-background:new    ;}
	.st29{fill:#E0E0E0;}
	.st30{fill:#C4C4C4;}
	.st31{fill:#67676B;}
	.st32{fill:#AAAAAA;}
	.st33{fill:#95A5A5;}
	.st34{fill:#7F8C8D;}
	.st35{fill:#35495E;}
	.st36{fill:#2C3E50;}
	.st37{fill:#ECF0F1;}
	.st38{fill:#56595E;}
	.st39{fill:#F3D55B;}
	.st40{fill:#71C285;}
	.st41{fill:#DF4D60;}
	.st42{fill:#FF5364;}
	.st43{fill:#3B97D3;}
	.st44{fill:#2980BA;}
	.st45{fill:#BDC3C7;}
	.st46{fill:#E6E7E8;}
	.st47{fill:#B0D3F0;}
	.st48{fill:#CC4B4C;}
	.st49{fill:#7ED09E;}
	.st50{fill:#606060;}
	.st51{fill:#D1D4D1;}
</style>
<title>chilling</title>
<g class="st0">
	
		<linearGradient id="SVGID_1_" gradientUnits="userSpaceOnUse" x1="612.8527" y1="378.0779" x2="612.8527" y2="903.7979" gradientTransform="matrix(1 0 0 -1 -115 1263.9158)">
		<stop  offset="0" style="stop-color:#808080;stop-opacity:0.25"/>
		<stop  offset="0.54" style="stop-color:#808080;stop-opacity:0.12"/>
		<stop  offset="1" style="stop-color:#808080;stop-opacity:0.1"/>
	</linearGradient>
	<path class="st1" d="M931.7,464.2H798.9v-50.8c0-29.4-23.8-53.2-53.2-53.2H137.4c-26.7,0-48.3,21.6-48.3,48.3l0,0v55.8h-20
		c-31,0-56.2,25.1-56.2,56.1v252c0,29.4,22.7,53.8,52,56v57h56.8v-56.8h71.5v57.3h56.8v-57.3h511v57.3h56.8v-57.3H865v56.8h56.8
		v-56.8h10.2c28,0,50.8-22.7,50.8-50.8c0,0,0,0,0,0V515.4C982.9,487.1,960,464.2,931.7,464.2C931.7,464.2,931.7,464.2,931.7,464.2z
		 M788.9,686.6v42.6H577.2c2.3-4.1,3.5-8.7,3.5-13.4v-29.2H788.9z"/>
</g>
<rect x="81" y="807.2" class="st2" width="54.7" height="68.3"/>
<rect x="751.2" y="807.7" class="st2" width="54.7" height="68.3"/>
<rect x="851.5" y="807.2" class="st2" width="54.7" height="68.3"/>
<rect x="204.5" y="807.7" class="st2" width="54.7" height="68.3"/>
<rect x="81" y="807.2" class="st3" width="54.7" height="68.3"/>
<rect x="751.2" y="807.7" class="st3" width="54.7" height="68.3"/>
<rect x="851.5" y="807.2" class="st3" width="54.7" height="68.3"/>
<rect x="204.5" y="807.7" class="st3" width="54.7" height="68.3"/>
<path class="st2" d="M778.1,470.1h137.5c27.2,0,49.3,22.1,49.3,49.3l0,0V772c0,27-21.9,48.9-48.9,48.9l0,0H778.1l0,0V470.1
	L778.1,470.1z"/>
<path class="st3" d="M778.1,470.1h137.5c27.2,0,49.3,22.1,49.3,49.3l0,0V772c0,27-21.9,48.9-48.9,48.9l0,0H778.1l0,0V470.1
	L778.1,470.1z"/>
<path class="st2" d="M150.8,369.8h263.3l0,0v314.4l0,0H104.3l0,0V416.3C104.3,390.7,125.1,369.8,150.8,369.8z"/>
<path class="st3" d="M152.3,369.8h261.8l0,0v314.4l0,0H104.3l0,0V417.8C104.3,391.3,125.7,369.8,152.3,369.8
	C152.3,369.8,152.3,369.8,152.3,369.8z"/>
<path class="st2" d="M222.1,369.8h255.3l0,0v314.4l0,0H167.5l0,0V424.4C167.5,394.3,191.9,369.8,222.1,369.8L222.1,369.8z"/>
<path class="st2" d="M475.9,369.8h260.6c28.3,0,51.3,23,51.3,51.3l0,0v263.1l0,0H475.9l0,0V369.8L475.9,369.8z"/>
<path class="st2" d="M864.6,470.1h51c27.2,0,49.2,22.1,49.2,49.3V772c0,27-21.9,48.9-48.9,48.9l0,0h-51.4l0,0V470.1L864.6,470.1z"/>
<rect x="235.9" y="725.2" class="st2" width="628.7" height="95.7"/>
<linearGradient id="SVGID_2_" gradientUnits="userSpaceOnUse" x1="1761.3918" y1="2805.6711" x2="1761.3918" y2="3019.9053" gradientTransform="matrix(0.8179 -0.5753 -0.5753 -0.8179 608.3084 3982.0598)">
	<stop  offset="0" style="stop-color:#808080;stop-opacity:0.25"/>
	<stop  offset="0.54" style="stop-color:#808080;stop-opacity:0.12"/>
	<stop  offset="1" style="stop-color:#808080;stop-opacity:0.1"/>
</linearGradient>
<path class="st4" d="M311.6,502.4l68.7-20c30.2-8.8,61.9,8.6,70.7,38.8l22.8,78.1c8.8,30.2-8.6,61.9-38.8,70.7l-68.7,20
	c-30.2,8.8-61.9-8.6-70.7-38.8l-22.8-78.1C264,542.9,281.4,511.3,311.6,502.4z"/>
<path class="st5" d="M312.5,510.4l64.1-18.7c28.2-8.2,57.7,8,66,36.2l21.2,72.8c8.2,28.2-8,57.7-36.2,66l-64.1,18.7
	c-28.2,8.2-57.7-8-66-36.2l-21.2-72.8C268.1,548.2,284.3,518.6,312.5,510.4z"/>
<path class="st6" d="M312.5,510.4l64.1-18.7c28.2-8.2,57.7,8,66,36.2l21.2,72.8c8.2,28.2-8,57.7-36.2,66l-64.1,18.7
	c-28.2,8.2-57.7-8-66-36.2l-21.2-72.8C268.1,548.2,284.3,518.6,312.5,510.4z"/>
<path class="st5" d="M315.8,508.1l64.1-18.7c28.2-8.2,57.7,8,66,36.2l21.2,72.8c8.2,28.2-8,57.7-36.2,66L366.8,683
	c-28.2,8.2-57.7-8-66-36.2l-21.2-72.8C271.4,545.8,287.6,516.3,315.8,508.1z"/>
<linearGradient id="SVGID_3_" gradientUnits="userSpaceOnUse" x1="1775.0386" y1="2944.7031" x2="1775.0386" y2="2972.043" gradientTransform="matrix(0.8179 -0.5753 -0.5753 -0.8179 608.3318 3982.0554)">
	<stop  offset="0" style="stop-color:#808080;stop-opacity:0.25"/>
	<stop  offset="0.54" style="stop-color:#808080;stop-opacity:0.12"/>
	<stop  offset="1" style="stop-color:#808080;stop-opacity:0.1"/>
</linearGradient>
<circle class="st7" cx="358.3" cy="541.1" r="13.7"/>
<linearGradient id="SVGID_4_" gradientUnits="userSpaceOnUse" x1="1806.9286" y1="2876.3633" x2="1806.9286" y2="2903.7034" gradientTransform="matrix(0.8179 -0.5753 -0.5753 -0.8179 608.334 3982.051)">
	<stop  offset="0" style="stop-color:#808080;stop-opacity:0.25"/>
	<stop  offset="0.54" style="stop-color:#808080;stop-opacity:0.12"/>
	<stop  offset="1" style="stop-color:#808080;stop-opacity:0.1"/>
</linearGradient>
<circle class="st8" cx="423.7" cy="578.6" r="13.7"/>
<linearGradient id="SVGID_5_" gradientUnits="userSpaceOnUse" x1="1702.1385" y1="2903.7034" x2="1702.1385" y2="2931.0432" gradientTransform="matrix(0.8179 -0.5753 -0.5753 -0.8179 608.3318 3982.0452)">
	<stop  offset="0" style="stop-color:#808080;stop-opacity:0.25"/>
	<stop  offset="0.54" style="stop-color:#808080;stop-opacity:0.12"/>
	<stop  offset="1" style="stop-color:#808080;stop-opacity:0.1"/>
</linearGradient>
<circle class="st9" cx="322.3" cy="616.6" r="13.7"/>
<linearGradient id="SVGID_6_" gradientUnits="userSpaceOnUse" x1="1729.4686" y1="2835.363" x2="1729.4686" y2="2862.7031" gradientTransform="matrix(0.8179 -0.5753 -0.5753 -0.8179 608.3299 3982.0461)">
	<stop  offset="0" style="stop-color:#808080;stop-opacity:0.25"/>
	<stop  offset="0.54" style="stop-color:#808080;stop-opacity:0.12"/>
	<stop  offset="1" style="stop-color:#808080;stop-opacity:0.1"/>
</linearGradient>
<circle class="st10" cx="383.9" cy="656.7" r="13.7"/>
<circle class="st11" cx="358.3" cy="541.1" r="9.1"/>
<circle class="st11" cx="423.7" cy="578.6" r="9.1"/>
<circle class="st11" cx="322.3" cy="616.6" r="9.1"/>
<circle class="st11" cx="383.9" cy="656.7" r="9.1"/>
<path class="st2" d="M85,470.1h201l0,0v350.8l0,0H85c-29.9,0-54.1-24.2-54.1-54.1V524.2C30.9,494.3,55.1,470.1,85,470.1z"/>
<path class="st3" d="M85.4,470.1h150.2c27.9,0,50.4,22.6,50.4,50.4c0,0,0,0,0,0v249.9c0,27.9-22.6,50.4-50.4,50.4H85.4
	c-30.1,0-54.5-24.4-54.5-54.5V524.6C30.9,494.5,55.3,470.1,85.4,470.1z"/>
<path class="st6" d="M186.3,470.1h87.8c9.4,0,17,7.6,17,17v316.8c0,9.4-7.6,17-17,17h-87.8l0,0V470.1L186.3,470.1z"/>
<path class="st2" d="M181.2,470.1H269c9.4,0,17,7.6,17,17v316.8c0,9.4-7.6,17-17,17h-87.8l0,0V470.1L181.2,470.1z"/>
<rect x="263.2" y="652.3" class="st2" width="314.4" height="86.6"/>
<rect x="578.1" y="652.8" class="st2" width="314.4" height="86.6"/>
<path class="st12" d="M289.8,652.3H551c14.7,0,26.6,11.9,26.6,26.6v33.4c0,14.7-11.9,26.6-26.6,26.6H289.8
	c-14.7,0-26.6-11.9-26.6-26.6v-33.4C263.2,664.2,275.1,652.3,289.8,652.3z"/>
<circle class="st2" cx="614.3" cy="474.9" r="18.2"/>
<circle class="st3" cx="614.3" cy="474.9" r="18.2"/>
<circle class="st2" cx="331.8" cy="474.9" r="18.2"/>
<circle class="st3" cx="331.8" cy="474.9" r="18.2"/>
<ellipse class="st13" cx="322.7" cy="371.9" rx="4.6" ry="6.8"/>
<path class="st12" d="M604.7,652.8h261.2c14.7,0,26.6,11.9,26.6,26.6v33.4c0,14.7-11.9,26.6-26.6,26.6H604.7
	c-14.7,0-26.6-11.9-26.6-26.6v-33.4C578.1,664.7,590,652.8,604.7,652.8z"/>
<g class="st0">
	
		<linearGradient id="SVGID_7_" gradientUnits="userSpaceOnUse" x1="765.5486" y1="713.9979" x2="765.5486" y2="851.3279" gradientTransform="matrix(1 0 0 -1 -115 1263.9158)">
		<stop  offset="0" style="stop-color:#808080;stop-opacity:0.25"/>
		<stop  offset="0.54" style="stop-color:#808080;stop-opacity:0.12"/>
		<stop  offset="1" style="stop-color:#808080;stop-opacity:0.1"/>
	</linearGradient>
	<path class="st14" d="M685.3,477.6c-2.1-11.5-4.2-23.1-9-33.8c-5.2-11.7-13.4-21.9-23.8-29.6c-1.5-1.2-3.4-1.7-5.4-1.6l0,0
		c-3,0.3-3.9,2.1-4.4,4c-0.1,0.2-0.1,0.4-0.2,0.7c-1.2,5.8-0.4,11.6,1.3,17.3c2.1,7.1,5.7,14,8.7,20.9c5.4,12.3,8.9,25.3,10.5,38.6
		c0.2,1.8,0.4,3.6,0.4,5.4c0,1.1,0,2.2-0.1,3.2c-0.1,2.1-0.6,4.2-1.4,6.1c-0.1,0.3-0.3,0.7-0.5,1c-0.2,0.3-0.3,0.7-0.5,0.9
		c-1.8,3-4.7,5.1-7.4,7.3s-5.9,4.4-9.3,5.5h0.1c-1.5,0.6-3.2,0.8-4.8,0.8c-5.1-0.2-10.6-4.3-15.8-3.3l0,0l-0.6,0.1
		c-5.3,1.4-9.3,9.7-9.4,15l0,0c0,0.4,0,0.8,0,1.2c0,0.1,0,0.3,0,0.4s0.1,0.5,0.1,0.8s0.1,0.3,0.1,0.5c0,0.2,0.1,0.5,0.2,0.7
		c0.1,0.2,0.1,0.3,0.1,0.5c0,0.2,0.1,0.4,0.2,0.6c0.1,0.2,0.1,0.3,0.2,0.4s0.2,0.4,0.3,0.6l0.2,0.4c0.1,0.2,0.2,0.3,0.3,0.5l0.3,0.4
		l0.3,0.5l0.3,0.4l0.4,0.4l0.3,0.3l0.4,0.4l0.3,0.3l0.5,0.4l0.4,0.3l0.5,0.3l0.4,0.3l0.6,0.3l0.4,0.2l0.6,0.3l0.4,0.2
		c0.3,0.1,0.6,0.3,0.9,0.4l0.5,0.2l0.7,0.3l0.5,0.2l0.6,0.2l0.6,0.2l0.6,0.1l0.6,0.1l0.5,0.1l0.7,0.1l0.5,0.1l0.7,0.1l0.5,0.1
		l0.7,0.1h0.5h0.7h0.5h0.8h1.6h0.8h0.3l0.9-0.1h0.2c2.5-0.2,5-0.8,7.3-1.6c7.5-2.8,13.8-8,19.7-13.4c11.6-10.8,22.6-24.1,23.6-39.9
		C687.4,489,686.3,483.3,685.3,477.6z"/>
</g>
<rect x="541.8" y="473.8" class="st6" width="94.3" height="27.3"/>
<rect x="541.8" y="473.8" class="st2" width="94.3" height="24.8"/>
<circle class="st2" cx="596.4" cy="462.2" r="14.9"/>
<path class="st15" d="M568.3,485.1l-0.2-0.2c1.2-0.9,1.4-2.6,0.5-3.8c-0.2-0.2-0.3-0.4-0.5-0.5l0.2-0.2c1.3,1,1.5,2.9,0.5,4.2
	C568.7,484.8,568.5,484.9,568.3,485.1L568.3,485.1z"/>
<path class="st6" d="M568.3,485.1l-0.2-0.2c1.2-0.9,1.4-2.6,0.5-3.8c-0.2-0.2-0.3-0.4-0.5-0.5l0.2-0.2c1.3,1,1.5,2.9,0.5,4.2
	C568.7,484.8,568.5,484.9,568.3,485.1L568.3,485.1z"/>
<path class="st15" d="M568.1,485.1c-1.3-1-1.5-2.9-0.5-4.2c0.2-0.2,0.3-0.4,0.5-0.5l0.2,0.2c-1.2,0.9-1.4,2.6-0.5,3.8
	c0.2,0.2,0.3,0.4,0.5,0.5L568.1,485.1z"/>
<polyline class="st15" points="568.2,480.5 568.2,480.5 568.2,480.5 568.2,480.5 "/>
<path class="st16" d="M644.4,565.2c6.8-2.6,12.6-7.3,18-12.3c10.6-9.8,20.7-22,21.5-36.5c0.3-5.3-0.6-10.5-1.6-15.8
	c-1.9-10.5-3.9-21.1-8.2-30.9c-4.8-10.7-12.3-20-21.7-27c-1.4-1.1-3.2-1.6-4.9-1.5c-3,0.3-3.8,2.3-4.2,4.3
	c-2.4,12,4.2,23.6,9.1,34.8c4.9,11.2,8.1,23.1,9.6,35.3c0.6,5.2,0.9,10.7-1.9,15.2c-1.7,2.7-4.3,4.7-6.8,6.6
	c-3.8,2.9-8,5.9-12.8,5.7s-10.1-4.2-15-2.9s-8.5,8.9-8.6,13.7C617.1,567.2,635.2,568.6,644.4,565.2z"/>
<g class="st17">
	<path d="M660.2,530.9c-1.7,2.7-4.3,4.7-6.8,6.6c-2.5,2.1-5.4,3.8-8.5,5c4.3-0.3,8.2-3,11.7-5.7c2.5-1.9,5.1-3.9,6.8-6.6
		c2.7-4.4,2.5-10,1.9-15.2c-1.5-12.2-4.7-24-9.6-35.3c-4.9-11.2-11.6-22.9-9.1-34.8c0.1-1.4,0.9-2.7,2-3.6c-0.4,0-0.7,0-1.1,0
		c-3,0.3-3.8,2.3-4.2,4.3c-2.4,12,4.2,23.6,9.1,34.8c4.9,11.2,8.1,23.1,9.6,35.3C662.7,520.9,662.9,526.5,660.2,530.9z"/>
	<path d="M620.4,553.4c0-4.5,3.2-11.3,7.5-13.3c-0.7,0-1.5,0.1-2.2,0.3c-4.8,1.3-8.5,8.9-8.6,13.7c-0.1,12.3,15.7,14.3,25.3,11.7
		C632.9,567.2,620.3,564.4,620.4,553.4z"/>
</g>
<g class="st0">
	
		<linearGradient id="SVGID_8_" gradientUnits="userSpaceOnUse" x1="689.4777" y1="631.5027" x2="689.4777" y2="867.0186" gradientTransform="matrix(1 0 0 -1 -115 1263.9158)">
		<stop  offset="0" style="stop-color:#808080;stop-opacity:0.25"/>
		<stop  offset="0.54" style="stop-color:#808080;stop-opacity:0.12"/>
		<stop  offset="1" style="stop-color:#808080;stop-opacity:0.1"/>
	</linearGradient>
	<path class="st18" d="M550.7,416.7c0,0,27.2-5.5,40.9,0c0,0,8.2-19.1,16.3-19.1s10.9,30,10.9,30l10.9,43.6c0,0,51.8,92.6,0,141.6
		s-133.5-5.5-133.5-40.9s16.3-108.9,16.3-108.9s16.3-59.9,21.8-65.4S550.7,416.7,550.7,416.7z"/>
</g>
<path class="st16" d="M551.6,420.5c0,0,26.2-5.2,39.3,0c0,0,7.8-18.3,15.7-18.3s10.5,28.8,10.5,28.8l10.5,41.9c0,0,49.8,89,0,136.1
	c-49.8,47.2-128.3-5.2-128.3-39.3c0-34,15.7-104.7,15.7-104.7s15.7-57.6,21-62.8S551.6,420.5,551.6,420.5z"/>
<g class="st17">
	<path class="st19" d="M645.9,521.8c-4-17-10.2-33.5-18.3-48.9l1.7,6.6C636.3,493,641.9,507.2,645.9,521.8z"/>
	<path class="st19" d="M504,562.7c0-34,12.7-91.1,12.7-91.1s15.7-57.6,21-62.8s15.7,18.3,15.7,18.3s26.2-5.2,39.3,0
		c0,0,7.9-18.3,15.7-18.3c3,0,5.3,4.3,6.9,9.6c-1.6-7.8-4.3-16.3-8.6-16.3c-7.8,0-15.7,18.3-15.7,18.3c-13.1-5.2-39.3,0-39.3,0
		s-10.5-23.6-15.7-18.3c-5.2,5.2-21,62.8-21,62.8s-12.7,57-12.7,91.1C502.3,559.2,504,563.7,504,562.7z"/>
</g>
<circle class="st20" cx="602.7" cy="466.4" r="5.2"/>
<circle class="st20" cx="542.5" cy="466.4" r="5.2"/>
<ellipse class="st20" cx="573.9" cy="471.6" rx="7.8" ry="5.2"/>
<rect x="618.1" y="462.4" transform="matrix(0.9762 -0.2168 0.2168 0.9762 -85.5343 147.6406)" class="st16" width="24.1" height="2.6"/>
<rect x="618.2" y="472.9" transform="matrix(0.9807 -0.1954 0.1954 0.9807 -80.4911 132.5616)" class="st16" width="26.7" height="2.6"/>
<rect x="509.7" y="444.4" transform="matrix(0.3714 -0.9285 0.9285 0.3714 -104.4428 762.7307)" class="st16" width="2.6" height="28.2"/>
<rect x="505.9" y="451.8" transform="matrix(0.1521 -0.9884 0.9884 0.1521 -33.5264 898.9208)" class="st16" width="2.6" height="34.4"/>
<path class="st6" d="M567.4,505.1c-6.9,0-13.7-0.6-20.5-1.7c-13-2.2-25.5-6.7-36.9-13.3l0.9-4.2c11.6,6.3,24.1,10.7,37,13
	c18.8,3.2,51.3,2.3,84.2-15.9l2.2,4C610.4,500.2,585.2,505.1,567.4,505.1z"/>
<path class="st5" d="M632.1,482c-33,18.2-65.4,19.1-84.2,15.9c-12.9-2.3-25.4-6.7-37-13l-2.4,3.9c12,6.6,25,11.2,38.4,13.6
	c6.8,1.2,13.6,1.8,20.5,1.8c17.9,0,43-4.9,67-18.1L632.1,482z M568.2,503.7c-0.3,0-0.5-0.2-0.5-0.5s0.2-0.5,0.5-0.5
	c0.3,0,0.5,0.2,0.5,0.5C568.7,503.5,568.5,503.7,568.2,503.7L568.2,503.7z"/>
<linearGradient id="SVGID_9_" gradientUnits="userSpaceOnUse" x1="683.2126" y1="748.0279" x2="683.2126" y2="758.1479" gradientTransform="matrix(1 0 0 -1 -115 1263.9158)">
	<stop  offset="0" style="stop-color:#FFFFFF"/>
	<stop  offset="1" style="stop-color:#000000"/>
</linearGradient>
<path class="st21" d="M563.2,510.8L563.2,510.8c0,2.8,2.3,5.1,5.1,5.1l0,0c2.8,0,5.1-2.3,5.1-5.1l0,0c0-2.8-2.3-5.1-5.1-5.1l0,0
	C565.4,505.8,563.2,508,563.2,510.8z M568.2,508.3c-0.5,0-0.8-0.4-0.8-0.8s0.4-0.8,0.8-0.8c0.5,0,0.8,0.4,0.8,0.8
	C569.1,507.9,568.7,508.3,568.2,508.3L568.2,508.3z"/>
<path class="st15" d="M563.7,510.8L563.7,510.8c0,2.5,2,4.6,4.6,4.6l0,0c2.5,0,4.6-2,4.6-4.6l0,0c0-2.5-2-4.6-4.6-4.6l0,0
	C565.7,506.3,563.7,508.3,563.7,510.8z M568.2,508.5c-0.4,0-0.8-0.3-0.8-0.8s0.3-0.8,0.8-0.8c0.4,0,0.8,0.3,0.8,0.8
	S568.6,508.5,568.2,508.5L568.2,508.5z"/>
<path class="st16" d="M625.4,483.5c-69.7,41-109.8,3-109.8,3L625.4,483.5z"/>
<linearGradient id="SVGID_10_" gradientUnits="userSpaceOnUse" x1="625.5069" y1="370.1038" x2="625.5069" y2="994.3647" gradientTransform="matrix(1 0 0 -1 -115 1263.9158)">
	<stop  offset="0" style="stop-color:#808080;stop-opacity:0.25"/>
	<stop  offset="0.54" style="stop-color:#808080;stop-opacity:0.12"/>
	<stop  offset="1" style="stop-color:#808080;stop-opacity:0.1"/>
</linearGradient>
<path class="st22" d="M816.6,684.9c-4.3-12.1-50,22-50,22l-10.6-0.6l-20.3-18.8l14.2-14.2L630.7,571c-6.4-5.5-14.9-8.1-23.3-7
	l-99.1,12.4c-0.4-5.7-3.9-12.4-8.9-19.3c-10.2-16.7-31.6-35.5-39.5-42.2l-12.1-81.5l10.3-15.4c-1.9-0.5-3.8-1.1-5.6-1.9l2.2-3.3
	l-0.8-0.2l1-1.2h-0.1l25.6-29.6c3.9-4.6,3.6-11.4-0.8-15.6l-57.3-43.5c1.7-4.1,2.6-8.6,2.4-13.1c0.5-8.6-3.4-17.4-16.4-23.9
	c-8-3.8-16.4-6.8-25.1-8.9c-14.3-3.7-29.2-3.4-43.4,0.6c-0.2-0.3-0.5-0.6-0.7-0.9c-17.6-20.1-40.7,8.8-41.6,10l-90.3,100.5
	c-5.1,8.1-3.1,18.7,4.5,24.5l47.8,35.9l-0.1,0.3l2.7,2c-2,4-4.8,6.7-8.4,7.1l7.3,3.7c-1.2,0.8-2.5,1.3-3.9,1.5l33.5,16.8
	c0,17.4,1.8,97.2,30.1,136.3c2.9,4.8,6.4,9.3,10.3,13.3c0,0,2.4-1.3,6.8-3.4l5.1,10.1c11.4,22.8,36.1,35.8,61.4,32.1l157.4-22.5
	l-1.7,5l0.9-0.1l-51,153l8.4,2.8l-0.2,0.3l1.2,0.5l-10.6,20l-33.4,25.7c0,0,97.6,48.8,107.9,41.1s-36-41.1-36-41.1l-2.6-10.3
	l11.2-23.7l9.4,3.1l75.6-151.2l0,0l2.6-5.1l51.2,64l14.4-14.4l1.6,1.6l0.1-0.1l20,20.2l14.5,39.5C745,775.5,820.9,697,816.6,684.9z
	 M419.6,390.8l-1-1.2c-6.1,7.6-16.9,16.9-28.9,23.1v-8.4l0.6-0.5v-3.7c15.5-14.3,21.6-36.1,15.7-56.4l33.2,25.5L419.6,390.8z
	 M306.9,296l-0.8-0.8L306.9,296L306.9,296z M280.3,349.5c-0.2,2.7-0.3,5.4-0.3,8c-0.1,3.9,0.2,7.8,0.6,11.7
	c1.7,13.6,6.6,24.7,16.6,30c8.7,4.6,14.5,4.4,18.1,1.2l0.4,0.4c0.3,5.3,1.7,10.5,4.1,15.3c-18.7-3.9-36.6-11.1-52.8-21.3
	c0,0,0.1,0.7,0.1,1.9L253.5,383L280.3,349.5z"/>
<polygon class="st13" points="531,776.8 508.6,819.2 543.5,834.2 565.9,786.8 "/>
<path class="st23" d="M543.5,834.2l2.5,10c0,0,44.9,32.4,34.9,39.9s-104.8-39.9-104.8-39.9l32.4-25L543.5,834.2z"/>
<polygon class="st6" points="563.6,791.2 528.2,779.4 517.7,799.3 552.6,814.2 "/>
<polygon class="st13" points="690.5,697.4 724.3,731.5 749,702.7 710.5,667.1 "/>
<polygon class="st6" points="711.9,668.7 691.9,699.1 704.7,712 730.6,686.1 "/>
<path class="st23" d="M749,702.7l10.3,0.6c0,0,44.4-33.1,48.5-21.3s-69.5,88-69.5,88l-14.1-38.4L749,702.7z"/>
<path class="st13" d="M429.3,447.4l51.8-60c3.8-4.4,3.5-11.1-0.8-15.1l-112.8-85.5l-13.7,21.4l87.4,67.3l-37.1,40.7L429.3,447.4z"/>
<path class="st6" d="M423.4,395.2l-18.1,19.9l25.2,31.3l26-30.1C443.7,412.3,432.3,405,423.4,395.2z"/>
<path class="st13" d="M278.9,460.4l-58.7-44c-7.4-5.6-9.3-15.9-4.4-23.8l87.8-97.7l18,18l-60.7,75.6l35.9,35.9L278.9,460.4z"/>
<path class="st6" d="M266.4,451.6l9.6,7.2l18-35.9l-22.6-22.5C271.9,408,273.3,437.7,266.4,451.6z"/>
<polygon class="st15" points="563.5,634.7 509.7,796.3 563.5,814.2 653.3,634.7 581.5,616.7 "/>
<polygon class="st6" points="561,639.7 558.4,647.8 614.9,639.7 637,667.3 650.8,639.7 579,621.7 "/>
<path class="st13" d="M303.5,295.1c0,0,23-29.7,40.5-9.7s-27.4,22.4-27.4,22.4L303.5,295.1z"/>
<path class="st15" d="M330.2,598.8l17.4,34.7c11.1,22.2,35.1,34.7,59.6,31.2l210.3-30l71.8,89.8l53.8-53.9l-115.8-99.3
	c-6.3-5.4-14.5-7.8-22.6-6.8L330.2,598.8z"/>
<path class="st6" d="M277.4,405.1c0,0,4.7,58.3-13.2,60.3l35.9,18c0,0-2,105.7,35.9,143.6c0,0,69.8-37.9,143.6-35.9
	s-18-71.8-18-71.8l-12.1-81.7l10-15c-13.5-4-25.6-11.8-34.9-22.4l0,0c-10,12.5-32.9,29.4-52.7,29.4h-8.6c-29.6,0-61-6-85.9-21.9
	L277.4,405.1z"/>
<path class="st24" d="M274.1,400.2c0,0,4.8,58.3-13.2,60.3l35.9,18c0,0-2,105.7,35.9,143.6c0,0,69.8-37.9,143.6-35.9
	s-18-71.8-18-71.8l-12.1-81.7l10-15c-13.5-4-25.6-11.8-34.9-22.4l0,0c-10,12.5-32.9,29.4-52.7,29.4H360
	C330.4,424.6,299,416.1,274.1,400.2L274.1,400.2z"/>
<path class="st13" d="M321.4,383.7v20c0,10.2,4,19.9,11.2,27.1l42.6,42.6l14.2-28.4c2.5-4.9,3.8-10.4,3.8-15.9v-45.4H321.4z"/>
<path class="st6" d="M321.9,406.8c0,0.7,0,1.5,0.1,2.2c20.4,18.2,51.3,18.2,71.7-0.1v-22.2h-71.8V406.8z"/>
<circle class="st13" cx="357.3" cy="365.8" r="53.9"/>
<path class="st6" d="M321.4,350.6h89.8c0,0,35.9-35.9,0-53.9c-7.8-3.7-16-6.6-24.4-8.6c-54.6-13.8-106.5,31.3-99.5,87.2
	c1.7,13.2,6.4,24,16.1,29.1C341.3,424.4,321.4,350.6,321.4,350.6z"/>
<path class="st23" d="M321.4,348.1h89.8c0,0,35.9-35.9,0-53.9c-7.8-3.7-16-6.6-24.4-8.6c-54.6-13.8-106.5,31.3-99.5,87.2
	c1.7,13.2,6.4,24,16.1,29.1C341.3,421.9,321.4,348.1,321.4,348.1z"/>
<ellipse class="st13" cx="324" cy="366.5" rx="5" ry="8.7"/>
<polygon class="st6" points="296.5,477.5 299,470 306.5,475 "/>
<path class="st6" d="M458.4,514.4c0,0-27.2,13-34.7,25.5"/>
<polygon class="st6" points="446.2,432.6 443.7,440.1 438.7,432.6 "/>
<path class="st23" d="M321.4,348.1h89.8c0,0,35.9-35.9,0-53.9c-7.8-3.7-16-6.6-24.4-8.6c-54.6-13.8-106.5,31.3-99.5,87.2
	c1.7,13.2,6.4,24,16.1,29.1C341.3,421.9,321.4,348.1,321.4,348.1z"/>
<path class="st6" d="M562.9,549.7c0,0,18.2,39.6-5.7,43c-23.9,3.4-13-33.2-13-33.2s-2.4-10.8-8.2-11.5"/>
<path class="st6" d="M584.9,548.8c0,0-21.7,37.8,1.9,43.3s15.9-31.9,15.9-31.9s3.3-10.6,9.2-10.7"/>
<path class="st16" d="M560.7,548.6c0,0,18.2,39.6-5.7,43c-23.9,3.4-13-33.2-13-33.2s-2.4-10.9-8.2-11.5"/>
<path class="st16" d="M586.5,547.1c0,0-21.7,37.8,1.9,43.3s15.9-31.9,15.9-31.9s3.3-10.6,9.2-10.7"/>
<rect x="547.4" y="583.4" class="st25" width="0.4" height="7.7"/>
<rect x="554" y="583.4" class="st25" width="0.4" height="7.7"/>
<rect x="550.4" y="580.9" class="st25" width="0.4" height="10.8"/>
<rect x="590.4" y="581.7" class="st25" width="0.4" height="7.7"/>
<rect x="597" y="581.7" class="st25" width="0.4" height="7.7"/>
<rect x="593.4" y="579.3" class="st25" width="0.4" height="10.8"/>
<g class="st0">
	
		<linearGradient id="SVGID_11_" gradientUnits="userSpaceOnUse" x1="1164.3451" y1="1483.1406" x2="1164.3451" y2="1578.3207" gradientTransform="matrix(0.9481 -0.318 -0.318 -0.9481 -108.9506 2785.2356)">
		<stop  offset="0" style="stop-color:#808080;stop-opacity:0.25"/>
		<stop  offset="0.54" style="stop-color:#808080;stop-opacity:0.12"/>
		<stop  offset="1" style="stop-color:#808080;stop-opacity:0.1"/>
	</linearGradient>
	<circle class="st26" cx="508.2" cy="963.7" r="47.6"/>
</g>
<circle class="st5" cx="508.2" cy="963.7" r="44.5"/>
<g class="st0">
	
		<linearGradient id="SVGID_12_" gradientUnits="userSpaceOnUse" x1="1061.2391" y1="1511.8666" x2="1061.2391" y2="1693.1571" gradientTransform="matrix(0.9481 -0.318 -0.318 -0.9481 -108.8951 2785.2332)">
		<stop  offset="0" style="stop-color:#808080;stop-opacity:0.25"/>
		<stop  offset="0.54" style="stop-color:#808080;stop-opacity:0.12"/>
		<stop  offset="1" style="stop-color:#808080;stop-opacity:0.1"/>
	</linearGradient>
	<path class="st27" d="M389.7,1023.4c-6.4,2.2-14.4,0.6-17.3-5.5c-1.7-3.5-1.3-7.5-0.9-11.4c0.4-4.2,0.8-7.8-1.6-10.2
		c-1.2-1-2.7-1.8-4.2-2.2c-2-0.7-4.2-1.2-6.2-1.8c-3.7-0.8-7.3-2-10.7-3.5c-6.8-3.2-11.1-8.6-11.6-14.4c-0.4-5,2-9.6,4.3-13.9
		s4.6-8.7,3.5-13c-1.5-5.8-8.4-8.5-14.6-11l-1-0.4c-7.5-3-15.5-9.3-13.5-17.5c0.7-2.8,2.5-5,4.2-7c1.2-1.3,2.2-2.7,3-4.3
		c2.7-5.7-1-12.3-2.6-14.8c-1.3-2-2.8-3.8-4.3-5.7c-2.3-2.7-4.4-5.6-6.1-8.7l-0.3-0.5c-4.1-7.7-4.1-8-3.8-16.4v-1l3.5,0.1v1
		c-0.3,7.6-0.3,7.6,3.4,14.6l0.3,0.5c1.6,2.9,3.6,5.6,5.8,8.1c1.5,1.9,3.1,3.8,4.5,5.9c4.3,6.5,5.3,13.2,2.9,18.3
		c-1,1.8-2.1,3.5-3.5,5c-1.5,1.8-3,3.6-3.5,5.6c-1.6,6.3,6.4,11.3,11.4,13.3l1,0.4c6.6,2.6,14.8,5.8,16.7,13.4
		c1.4,5.6-1.2,10.6-3.8,15.5c-2.2,4.1-4.2,8-3.9,12c0.4,5.4,5.3,9.5,9.6,11.5c3.3,1.4,6.6,2.5,10.1,3.3c2.1,0.5,4.3,1.1,6.5,1.8
		c2.1,0.6,4,1.6,5.6,3.1c3.6,3.5,3.1,8.4,2.6,13.1c-0.4,3.5-0.7,6.8,0.6,9.5c2.3,4.8,9.5,5.5,14.5,3.1c4.1-1.9,7.3-5.2,10.7-8.6
		c1.1-1.1,2.2-2.3,3.4-3.4c6.3-6,12.8-8.6,18.5-7.6c1.8,0.4,3.6,1,5.3,1.7c1.3,0.6,2.7,1.1,4.1,1.4c6.5,1.2,12.9-2.9,14.5-9.3
		c0.1-0.6,0.2-1.2,0.3-1.9c0.3-2.1,0.7-4.4,2.3-6.3s4.3-2.5,6.2-2.9l19.3-4.5l0.8,3.5l-19.3,4.5c-1.8,0.4-3.4,0.9-4.3,1.9
		s-1.2,2.7-1.4,4.4c-0.1,0.7-0.2,1.4-0.4,2.1c-2.1,8.3-10.3,13.6-18.8,12c-1.6-0.4-3.2-0.9-4.7-1.6c-1.5-0.7-3-1.2-4.6-1.5
		c-5.9-1-11.7,3.1-15.5,6.7c-1.1,1-2.2,2.2-3.3,3.3c-3.5,3.5-7,7.2-11.7,9.4C390.9,1022.9,390.3,1023.2,389.7,1023.4z"/>
</g>
<path class="st5" d="M390.2,1021.6c-6.4,2.2-14.4,0.6-17.3-5.5c-1.7-3.5-1.3-7.5-0.9-11.4c0.4-4.2,0.8-7.8-1.6-10.2
	c-1.2-1-2.7-1.8-4.2-2.2c-2-0.7-4.2-1.2-6.2-1.8c-3.7-0.8-7.3-2-10.7-3.5c-6.8-3.2-11.1-8.6-11.6-14.4c-0.4-5,2-9.6,4.3-13.9
	s4.6-8.7,3.5-13c-1.5-5.8-8.4-8.5-14.6-11l-1-0.4c-7.5-3-15.5-9.3-13.5-17.5c0.7-2.8,2.5-5,4.2-7c1.2-1.3,2.2-2.7,3-4.3
	c2.7-5.7-1-12.3-2.6-14.8c-1.3-2-2.8-3.8-4.3-5.7c-2.3-2.7-4.4-5.6-6.1-8.7l-0.3-0.5c-4.1-7.7-4.1-8-3.8-16.4v-1l3.5,0.1v1
	c-0.3,7.6-0.3,7.6,3.4,14.6l0.3,0.5c1.6,2.9,3.6,5.6,5.8,8.1c1.5,1.9,3.1,3.8,4.5,5.9c4.3,6.5,5.3,13.2,2.9,18.3
	c-1,1.8-2.1,3.5-3.5,5c-1.5,1.8-3,3.6-3.5,5.6c-1.6,6.3,6.4,11.3,11.4,13.3l1,0.4c6.6,2.6,14.8,5.8,16.7,13.4
	c1.4,5.6-1.2,10.6-3.8,15.5c-2.2,4.1-4.2,8-3.9,12c0.4,5.4,5.3,9.5,9.6,11.5c3.3,1.4,6.6,2.5,10.1,3.3c2.1,0.5,4.3,1.1,6.5,1.8
	c2.1,0.6,4,1.6,5.6,3.1c3.6,3.5,3.1,8.4,2.6,13.1c-0.4,3.5-0.7,6.8,0.6,9.5c2.3,4.8,9.5,5.5,14.5,3.1c4.1-1.9,7.3-5.2,10.7-8.6
	c1.1-1.1,2.2-2.3,3.4-3.4c6.3-6,12.8-8.6,18.5-7.6c1.8,0.4,3.6,1,5.3,1.7c1.3,0.6,2.7,1.1,4.1,1.4c6.5,1.2,12.9-2.9,14.5-9.3
	c0.1-0.6,0.2-1.2,0.3-1.9c0.3-2.1,0.7-4.4,2.3-6.3s4.3-2.5,6.2-2.9l19.3-4.5l0.8,3.5l-19.3,4.5c-1.8,0.4-3.4,0.9-4.3,1.9
	s-1.2,2.7-1.4,4.4c-0.1,0.7-0.2,1.4-0.4,2.1c-2.1,8.3-10.3,13.6-18.8,12c-1.6-0.4-3.2-0.9-4.7-1.6c-1.5-0.7-3-1.2-4.6-1.5
	c-5.9-1-11.7,3.1-15.5,6.7c-1.1,1-2.2,2.2-3.3,3.3c-3.5,3.5-7,7.2-11.7,9.4C391.4,1021.1,390.8,1021.4,390.2,1021.6z"/>
<path class="st28" d="M505.7,932c0,0,24.7-3.7,36.7,30.7"/>
<path class="st28" d="M478.4,986.8c0,0-18.3-25.9,14.3-54.5"/>
<path class="st28" d="M485.9,977.3c0,0-8.8-13.6,0.4-25.8"/>
<path class="st28" d="M501.7,946.4c0,0,11.7,4.6,13.3,25.4"/>
<path class="st28" d="M515.4,922c0,0,18.3,3.5,31,28.6"/>
<path class="st28" d="M491.9,929.9c0,0,8.6-6.1,16.6-2.9"/>
<path class="st28" d="M498.4,987.5c0,0,11.5,7.3,41.3-13.8"/>
<path class="st28" d="M496.3,1002.1c0,0,7.2,7.2,22.3,1.1"/>
<path class="st28" d="M474.9,938.3c-6.3,9.3-8.2,20.9-5.4,31.7"/>
<path class="st28" d="M484.6,984.7c0,0-1,6.7,6.6,10.1"/>
<path class="st28" d="M544.5,976.9c0,0-0.5,13-7.7,13.8"/>
<path class="st28" d="M505,996c8.8,1.2,17.7-1.8,24-8"/>
<path class="st28" d="M516.1,949.6c0,0,6.3,4.3,5.6,12"/>
<path class="st28" d="M492.3,958.1c0,0-1.7,9.1,2.8,14.6"/>
<path class="st28" d="M497.5,956.3c0,0,6.4,8,4.7,13.9"/>
<g>
	<path class="st29" d="M649.1,52.9H301.8c-15.7,0-28.4,10.5-28.4,23.3v103.7c0,12.9,12.7,23.3,28.4,23.3h347.4
		c15.7,0,28.4-10.5,28.4-23.3V76.2C677.6,63.3,664.8,52.9,649.1,52.9z"/>
	<path class="st30" d="M649.1,182.2H301.8c-15.7,0-28.4-10.5-28.4-23.3v21c0,12.9,12.7,23.3,28.4,23.3h347.4
		c15.7,0,28.4-10.5,28.4-23.3v-21C677.6,171.7,664.8,182.2,649.1,182.2z"/>
	<path class="st2" d="M344.9,180.8v17.5c0,2.7,2.2,4.9,4.9,4.9h252.1c2.7,0,4.9-2.2,4.9-4.9v-17.5H344.9z"/>
	<rect x="324" y="175.2" class="st31" width="308.5" height="9.7"/>
	<path class="st32" d="M601.9,92.5h-14.4c-2.7,0-4.9-2.2-4.9-4.9c0-2.7,2.2-4.9,4.9-4.9h14.4c2.7,0,4.9,2.2,4.9,4.9
		C606.8,90.3,604.6,92.5,601.9,92.5z"/>
	<path class="st32" d="M565.3,92.5h-92.2c-2.7,0-4.9-2.2-4.9-4.9c0-2.7,2.2-4.9,4.9-4.9h92.2c2.7,0,4.9,2.2,4.9,4.9
		C570.2,90.3,568,92.5,565.3,92.5z"/>
	<g>
		<path class="st2" d="M385.9,254.2c-1.5,0-3-0.7-4-2c-1.6-2.2-1-5.2,1.1-6.8c13.5-9.6,13.7-24,13.7-24.2c0-2.7,2.2-4.9,4.9-4.9
			c2.7,0,4.9,2.2,4.9,4.9c0,0.8-0.2,19.6-17.8,32.1C387.8,253.9,386.8,254.2,385.9,254.2z"/>
		<path class="st2" d="M436.4,254.2c-2.7,0-4.9-2.2-4.9-4.9v-28.2c0-2.7,2.2-4.9,4.9-4.9c2.7,0,4.9,2.2,4.9,4.9v28.2
			C441.3,252,439.1,254.2,436.4,254.2z"/>
		<path class="st2" d="M477.2,254.2c-2.7,0-4.9-2.2-4.9-4.9v-28.2c0-2.7,2.2-4.9,4.9-4.9s4.9,2.2,4.9,4.9v28.2
			C482.1,252,479.9,254.2,477.2,254.2z"/>
		<path class="st2" d="M565.9,254.2c-1,0-2-0.3-2.8-0.9c-17.6-12.5-17.8-31.3-17.8-32.1c0-2.7,2.2-4.9,4.9-4.9
			c2.7,0,4.9,2.2,4.9,4.8c0,0.6,0.3,14.7,13.7,24.2c2.2,1.6,2.7,4.6,1.1,6.8C568.9,253.5,567.4,254.2,565.9,254.2z M555,221.1
			L555,221.1L555,221.1z"/>
		<path class="st2" d="M514.4,254.2c-2.2,0-4-2.2-4-4.9v-28.2c0-2.7,1.8-4.9,4-4.9c2.2,0,4,2.2,4,4.9v28.2
			C518.4,252,516.6,254.2,514.4,254.2z"/>
	</g>
</g>
<g id="Page-1">
	<g>
		<path id="Shape" class="st33" d="M229.9,955.7v88.7h-209v-69.7c0-10.5,8.5-19,19-19H229.9z"/>
		<path class="st34" d="M312.2,974.7v69.7h-95v-88.7h76C303.7,955.7,312.2,964.2,312.2,974.7z"/>
		<path class="st29" d="M312.2,1031.7V1304c0,10.5-8.5,19-19,19H39.9c-10.5,0-19-8.5-19-19v-272.3H312.2z"/>
		<path class="st35" d="M234.9,1094.2c-11,5.7-23.2,12.3-35.9,19.8c-2.6,1.5-5.3,3.1-7.9,4.7c-7.4,4.5-14.9,9.2-22.4,14.2
			c-16.2,10.6-31.7,22.3-46.4,34.8c-9,7.7-17.6,15.8-25.7,24.5c-2.5-1.6-5.3-2.3-8.2-2.3c-13.2,0-13,12.9-26.4,12.5
			c-10.8-45,8.3-91.9,47.5-116.4C148.7,1061.6,199.2,1064.8,234.9,1094.2L234.9,1094.2z"/>
		<path class="st36" d="M274.3,1177.3c0,8.5-1,17-3,25.3c-13.5,0.3-13.4-12.7-26.5-12.7s-13,12.7-26.1,12.7c-13,0-13-12.7-26-12.7
			c-13,0-13,12.7-26.1,12.7c-8,0-11.1-4.7-15.2-8.4c-2.9-2.8-6.8-4.3-10.9-4.2c-13,0-13,12.7-26.1,12.7c-9.4,0-12-6.7-17.8-10.4
			c39.3-42.2,96.9-76.6,138.4-98.1c4.4,3.6,8.6,7.6,12.3,11.9C264.7,1125.7,274.3,1151.1,274.3,1177.3z"/>
		<circle id="Oval" class="st37" cx="65.3" cy="993.7" r="12.7"/>
		<path class="st38" d="M286.9,1000h-44.3c-3.5,0-6.3-2.8-6.3-6.3c0-3.5,2.8-6.3,6.3-6.3h44.3c3.5,0,6.3,2.8,6.3,6.3
			C293.2,997.2,290.4,1000,286.9,1000z"/>
		<circle class="st39" cx="103.3" cy="993.7" r="6.3"/>
		<circle class="st39" cx="128.6" cy="993.7" r="6.3"/>
		<circle class="st40" cx="153.9" cy="993.7" r="6.3"/>
		<path class="st41" d="M234.7,1138.5l-10.1,15.3c-1,1.5-2.5,2.4-4.2,2.7s-3.5-0.2-4.9-1.2l-4.5-3.4v63.3l-88.7-0.1v-47.5
			c14.7-12.6,30.2-24.2,46.4-34.8c9.6,0.1,18.4-5.5,22.4-14.2c2.7-1.6,5.3-3.2,7.9-4.7h9.9c1.3,0,2.6,0.4,3.7,1.2l20.5,14.6
			C235.9,1131.8,236.6,1135.6,234.7,1138.5L234.7,1138.5z"/>
		<path class="st42" d="M166.6,1133c0.7,0,1.4,0,2.1-0.1c-16.2,10.6-31.7,22.3-46.4,34.8V1152l-4.5,3.4c-1.4,1.1-3.2,1.5-4.9,1.2
			c-1.7-0.3-3.3-1.3-4.2-2.7l-10.1-15.3c-1.9-2.8-1.2-6.7,1.6-8.7l20.5-14.6c1.1-0.8,2.3-1.2,3.7-1.2h11.2c2.9-0.1,5.5,1.7,6.5,4.4
			C146.2,1128,156.1,1133.8,166.6,1133L166.6,1133z"/>
		<path class="st42" d="M199,1114c-2.6,1.5-5.3,3.1-7.9,4.7c0.1-0.1,0.1-0.2,0.1-0.3c1-2.7,3.6-4.5,6.5-4.4H199z"/>
		<path class="st43" d="M96.6,1192.3c-9.8,10.4-18.5,21.7-26,33.9c-3.8-7.5-6.7-15.4-8.7-23.6c13.4,0.3,13.2-12.5,26.4-12.5
			C91.2,1189.9,94.1,1190.7,96.6,1192.3z"/>
		<path class="st44" d="M271.3,1202.6c-9.3,38.3-38.7,68.4-76.7,78.6c-38,10.2-78.6-1.1-105.8-29.6c-7.3-7.6-13.5-16.2-18.2-25.6
			c7.5-12.1,16.2-23.5,26-33.9c5.8,3.7,8.4,10.4,17.8,10.4c13,0,13-12.7,26.1-12.7c4,0,7.9,1.5,10.9,4.2c4.1,3.7,7.2,8.4,15.2,8.4
			c13,0,13-12.7,26.1-12.7c13,0,13,12.7,26,12.7c13,0,13-12.7,26.1-12.7C257.8,1190,257.8,1202.9,271.3,1202.6L271.3,1202.6z"/>
		<path class="st45" d="M166.6,1291.3c-63,0-114-51-114-114c0-63,51-114,114-114s114,51,114,114
			C280.5,1240.2,229.5,1291.2,166.6,1291.3z M166.6,1076c-56,0-101.3,45.4-101.3,101.3s45.4,101.3,101.3,101.3
			s101.3-45.4,101.3-101.3C267.9,1121.4,222.5,1076.1,166.6,1076z"/>
	</g>
</g>
<path class="st45" d="M864.3,301.2V315c0,2.5-2,4.5-4.5,4.5H842c-2.5,0-4.5-2-4.5-4.5v-15.9L864.3,301.2z"/>
<path class="st45" d="M926.9,299.1V315c0,2.5-2,4.5-4.5,4.5h-17.9c-2.5,0-4.5-2-4.5-4.5v-13.8L926.9,299.1z"/>
<path class="st46" d="M967.1,76.3v209.2c0,4.3-3,8-7.2,8.8c-51.3,9.7-104,9.7-155.4,0c-4.2-0.8-7.2-4.5-7.2-8.8V76.3
	c0-4.3,3-8,7.2-8.8c9.5-1.8,19-3.3,28.5-4.4v73.1c0,27.2,22,49.2,49.2,49.2s49.2-22,49.2-49.2V63.1c9.6,1.1,19,2.6,28.5,4.4
	C964.1,68.3,967.1,72,967.1,76.3z"/>
<path class="st45" d="M931.4,63.1v73.1c0,27.2-22,49.2-49.2,49.2s-49.2-22-49.2-49.2V63.1C865.7,59.2,898.7,59.2,931.4,63.1z"/>
<path class="st47" d="M913.5,136.2c0,17.3-14,31.3-31.3,31.3c-17.3,0-31.3-14-31.3-31.3c0-17.3,14-31.3,31.3-31.3
	C899.5,104.9,913.5,118.9,913.5,136.2z"/>
<path class="st33" d="M882.2,171.9c-19.8,0-35.8-16-35.8-35.8c0-19.7,16-35.8,35.8-35.8c19.7,0,35.8,16,35.8,35.8
	C917.9,155.9,901.9,171.9,882.2,171.9z M882.2,109.4c-14.8,0-26.8,12-26.8,26.8c0,14.8,12,26.8,26.8,26.8c14.8,0,26.8-12,26.8-26.8
	C909,121.4,897,109.4,882.2,109.4z"/>
<path class="st48" d="M882.2,140.6c-1.6,0-3.2-0.9-3.9-2.4c-0.8-1.5-0.7-3.2,0.2-4.6l8.9-13.4c0.9-1.3,2.4-2.1,4-2
	c1.6,0.1,3,1.1,3.7,2.5c0.7,1.4,0.6,3.2-0.3,4.5l-8.9,13.4C885.1,139.9,883.7,140.6,882.2,140.6z"/>
<path class="st49" d="M859.8,207.7h44.7c2.5,0,4.5,2,4.5,4.5v17.9c0,2.5-2,4.5-4.5,4.5h-44.7c-2.5,0-4.5-2-4.5-4.5v-17.9
	C855.4,209.7,857.4,207.7,859.8,207.7z"/>
<path class="st19" d="M815.1,207.7c-2.5,0-4.5-2-4.5-4.5v-4.5c0-2.5,2-4.5,4.5-4.5s4.5,2,4.5,4.5v4.5
	C819.6,205.7,817.6,207.7,815.1,207.7z"/>
<path class="st19" d="M815.1,279.2c-2.5,0-4.5-2-4.5-4.5v-53.6c0-2.5,2-4.5,4.5-4.5s4.5,2,4.5,4.5v53.6
	C819.6,277.2,817.6,279.2,815.1,279.2z"/>
<g>
	<path class="st50" d="M855.4,256.9h-8.9c-2.5,0-4.5-2-4.5-4.5c0-2.5,2-4.5,4.5-4.5h8.9c2.5,0,4.5,2,4.5,4.5
		C859.8,254.9,857.8,256.9,855.4,256.9z"/>
	<path class="st50" d="M855.4,274.8h-8.9c-2.5,0-4.5-2-4.5-4.5s2-4.5,4.5-4.5h8.9c2.5,0,4.5,2,4.5,4.5S857.8,274.8,855.4,274.8z"/>
	<path class="st50" d="M918,256.9H909c-2.5,0-4.5-2-4.5-4.5c0-2.5,2-4.5,4.5-4.5h8.9c2.5,0,4.5,2,4.5,4.5
		C922.4,254.9,920.4,256.9,918,256.9z"/>
	<path class="st50" d="M918,274.8H909c-2.5,0-4.5-2-4.5-4.5s2-4.5,4.5-4.5h8.9c2.5,0,4.5,2,4.5,4.5S920.4,274.8,918,274.8z"/>
</g>
<path class="st45" d="M933.1,1050.1v39.3H553.6v-39.3c0-13.9,5.5-27.2,15.3-37c9.8-9.8,23.1-15.3,37-15.3h274.9
	c13.9,0,27.2,5.5,37,15.3C927.6,1022.9,933.1,1036.2,933.1,1050.1z"/>
<g>
	<path class="st34" d="M900.4,1048v28.3h-13.1V1048c0-26.4-18.8-48.2-42.5-50.1c-1-0.1-2.2-0.1-3.3-0.1h35.8
		C892.1,1010.2,900.6,1028.6,900.4,1048z"/>
	<path class="st34" d="M645.2,997.8c-1.1,0-2.2,0.1-3.3,0.1c-23.8,1.8-42.5,23.6-42.5,50.1v28.3h-13.1V1048
		c-0.2-19.3,8.3-37.7,23.1-50.2H645.2z"/>
	<path class="st34" d="M867.7,1048v28.3h-13.1V1048c0-26.4-18.8-48.2-42.5-50.1c-1-0.1-2.2-0.1-3.3-0.1h35.8
		c0.1,0.1,0.1,0.1,0.2,0.1C859.5,1010.4,867.9,1028.7,867.7,1048z"/>
	<path class="st34" d="M677.9,997.8c-1.1,0-2.2,0.1-3.3,0.1c-23.8,1.8-42.5,23.6-42.5,50.1v28.3H619V1048
		c-0.2-19.3,8.2-37.6,22.9-50.1c0.1,0,0.1-0.1,0.2-0.1H677.9z"/>
	<path class="st34" d="M835,1048v28.3h-13.1V1048c0-26.4-18.8-48.2-42.5-50.1c-1-0.1-2.2-0.1-3.3-0.1h35.8c0.1,0.1,0.1,0.1,0.2,0.1
		C826.8,1010.4,835.1,1028.7,835,1048z"/>
	<path class="st34" d="M710.6,997.8c-1.1,0-2.2,0.1-3.3,0.1c-23.8,1.8-42.5,23.6-42.5,50.1v28.3h-13.1V1048
		c-0.2-19.3,8.2-37.6,22.9-50.1c0.1,0,0.1-0.1,0.2-0.1H710.6z"/>
	<path class="st34" d="M743.4,997.8c-6.5,0-12.9,1.5-18.7,4.4c-17,8.9-27.5,26.6-27.1,45.8v28.3h-13.1V1048
		c-0.2-19.3,8.2-37.6,22.9-50.1c0.1,0,0.1-0.1,0.2-0.1H743.4z"/>
	<path class="st34" d="M802.3,1048v28.3h-13.1V1048c0.4-19.2-10.1-36.9-27.1-45.8c-5.8-2.9-12.2-4.4-18.7-4.4h35.8
		c0.1,0.1,0.1,0.1,0.2,0.1C794,1010.4,802.4,1028.7,802.3,1048z"/>
	<path class="st34" d="M743.4,997.8c-0.7,0-4.3,2.2-7.7,12.2c-3.8,12.3-5.6,25.1-5.4,38v28.3h-13.1V1048
		c-0.2-14.3,1.8-28.6,6.1-42.3c0.5-1.2,0.9-2.4,1.4-3.5c0.6-1.5,1.3-3,2-4.4H743.4z"/>
	<path class="st34" d="M769.5,1048v28.3h-13.1V1048c0.2-12.9-1.6-25.7-5.4-38c-3.5-10.1-7-12.2-7.7-12.2h16.8c0.7,1.4,1.4,2.8,2,4.4
		c0.5,1.1,0.9,2.3,1.4,3.5C767.7,1019.4,769.8,1033.6,769.5,1048z"/>
</g>
<path class="st35" d="M619,1272.6c0,0-11.7,17.5-13,52.5c-0.1,3.5-3,6.3-6.5,6.4h-26.2c-1.8,0-3.5-0.8-4.8-2.1
	c-1.2-1.3-1.8-3.1-1.7-4.9c0.4-19,7.2-37.3,19.4-51.9H619z"/>
<path class="st35" d="M867.7,1272.6c0,0,11.7,17.5,13,52.5c0.1,3.5,3,6.3,6.5,6.4h26.2c1.8,0,3.5-0.8,4.8-2.1
	c1.2-1.3,1.8-3.1,1.7-4.9c-0.4-19-7.2-37.3-19.4-51.9H867.7z"/>
<path class="st51" d="M553.6,1076.3h379.6v189.8c0,7.2-5.9,13.1-13.1,13.1H566.6c-7.2,0-13.1-5.9-13.1-13.1V1076.3z"/>
<path class="st46" d="M566.6,1076.3h353.4v189.8c0,7.2-5.9,13.1-13.1,13.1H579.7c-7.2,0-13.1-5.9-13.1-13.1V1076.3z"/>
<path class="st34" d="M632.1,1226.8h-39.3c-3.6,0-6.5-2.9-6.5-6.5s2.9-6.5,6.5-6.5h39.3c3.6,0,6.5,2.9,6.5,6.5
	S635.7,1226.8,632.1,1226.8z"/>
<path class="st34" d="M632.1,1253h-39.3c-3.6,0-6.5-2.9-6.5-6.5s2.9-6.5,6.5-6.5h39.3c3.6,0,6.5,2.9,6.5,6.5S635.7,1253,632.1,1253z
	"/>
<path class="st34" d="M697.5,1226.8h-39.3c-3.6,0-6.5-2.9-6.5-6.5s2.9-6.5,6.5-6.5h39.3c3.6,0,6.5,2.9,6.5,6.5
	S701.2,1226.8,697.5,1226.8z"/>
<path class="st34" d="M697.5,1253h-39.3c-3.6,0-6.5-2.9-6.5-6.5s2.9-6.5,6.5-6.5h39.3c3.6,0,6.5,2.9,6.5,6.5S701.2,1253,697.5,1253z
	"/>
<path class="st34" d="M763,1226.8h-39.3c-3.6,0-6.5-2.9-6.5-6.5s2.9-6.5,6.5-6.5H763c3.6,0,6.5,2.9,6.5,6.5S766.6,1226.8,763,1226.8
	z"/>
<path class="st34" d="M763,1253h-39.3c-3.6,0-6.5-2.9-6.5-6.5s2.9-6.5,6.5-6.5H763c3.6,0,6.5,2.9,6.5,6.5S766.6,1253,763,1253z"/>
<path class="st34" d="M828.4,1226.8h-39.3c-3.6,0-6.5-2.9-6.5-6.5s2.9-6.5,6.5-6.5h39.3c3.6,0,6.5,2.9,6.5,6.5
	S832,1226.8,828.4,1226.8z"/>
<path class="st34" d="M828.4,1253h-39.3c-3.6,0-6.5-2.9-6.5-6.5s2.9-6.5,6.5-6.5h39.3c3.6,0,6.5,2.9,6.5,6.5S832,1253,828.4,1253z"
	/>
<path class="st34" d="M893.9,1226.8h-39.3c-3.6,0-6.5-2.9-6.5-6.5s2.9-6.5,6.5-6.5h39.3c3.6,0,6.5,2.9,6.5,6.5
	S897.5,1226.8,893.9,1226.8z"/>
<path class="st34" d="M893.9,1253h-39.3c-3.6,0-6.5-2.9-6.5-6.5s2.9-6.5,6.5-6.5h39.3c3.6,0,6.5,2.9,6.5,6.5S897.5,1253,893.9,1253z
	"/>
<path class="st19" d="M592.8,1109h-13.1c-3.6,0-6.5-2.9-6.5-6.5s2.9-6.5,6.5-6.5h13.1c3.6,0,6.5,2.9,6.5,6.5S596.4,1109,592.8,1109z
	"/>
<path class="st19" d="M717.2,1109H619c-3.6,0-6.5-2.9-6.5-6.5s2.9-6.5,6.5-6.5h98.2c3.6,0,6.5,2.9,6.5,6.5S720.8,1109,717.2,1109z"
	/>
</svg>
