<?xml version="1.0" encoding="UTF-8"?> <!-- Creator: CorelDRAW 2018 (64-Bit) --> <svg xmlns="http://www.w3.org/2000/svg" xmlns:xlink="http://www.w3.org/1999/xlink" xml:space="preserve" width="3508px" height="2480px" style="shape-rendering:geometricPrecision; text-rendering:geometricPrecision; image-rendering:optimizeQuality; fill-rule:evenodd; clip-rule:evenodd" viewBox="0 0 3508 2480.4"> <defs> <style type="text/css"> <![CDATA[ .fil0 {fill:#005EA2;fill-rule:nonzero} .fil1 {fill:#E31E26;fill-rule:nonzero} ]]> </style> </defs> <g id="Слой_x0020_1"> <metadata id="CorelCorpID_0Corel-Layer"></metadata> <g id="_2141537906480"> <path class="fil0" d="M529.42 1632.32l0 7.03c0,26.2 -0.35,49.88 -23.16,68.1 -22.78,17.9 -50.59,17.55 -79.76,17.55 -68.36,0 -118.31,-3.18 -118.31,-90.76l0 -62.04c0,-79.27 44.59,-90.79 118.31,-90.79 69.07,0 101.22,6.71 102.57,78.66l0 9.31 -69.04 0 0 -9.31c-2.34,-21.43 -18.1,-23 -40.9,-23 -38.21,0 -41.9,11.17 -41.9,45.4l0 37.37c0,35.8 1.7,49.59 41.9,49.59 27.84,0 41.22,-1.95 41.22,-30.09l0 -7.02 69.07 0 0 0 0 0z"></path> <path class="fil0" d="M639.87 1725l-0.19 0c-72.05,0 -87.81,-18.54 -87.81,-85.66 0,-68.71 14.41,-85.97 87.81,-85.97l0.19 0 0 42.18c-27.04,0.16 -30.35,7.73 -30.35,43.79 0,36.09 3.31,43.34 30.35,43.47l0 42.19 0 0zm87.96 -85.66c0,69.04 -15.04,85.63 -87.96,85.66l0 -42.19 0.8 0c26.82,0 29.55,-7.02 29.55,-43.47 0,-36.44 -2.73,-43.79 -29.55,-43.79l-0.8 0 0 -42.18c73.56,0.03 87.96,15.08 87.96,85.98l0 -0.01z"></path> <path class="fil0" d="M838.61 1725l-0.2 0c-72.05,0 -87.77,-18.54 -87.77,-85.66 0,-68.71 14.41,-85.97 87.77,-85.97l0.2 0 0 42.18c-27.05,0.16 -30.35,7.73 -30.35,43.79 0,36.09 3.3,43.34 30.35,43.47l0 42.19 0 0zm87.96 -85.66c0,69.04 -15.05,85.63 -87.96,85.66l0 -42.19 0.83 0c26.82,0 29.52,-7.02 29.52,-43.47 0,-36.44 -2.7,-43.79 -29.52,-43.79l-0.83 0 0 -42.18c73.59,0.03 87.96,15.08 87.96,85.98l0 -0.01z"></path> <path class="fil0" d="M956.44 1555.29l57.65 0 -1.35 26.53 2.66 0c4.65,-15.68 14.85,-23.25 29,-26.46l0 40.23 -1.51 -0.04c-24.44,0 -28.8,8.35 -28.8,43.79 0,28.14 1.99,43.47 28.8,43.47l1.51 0 0 39.94c-11.8,-3.11 -21.62,-10.1 -27.65,-24.92l-2.66 0 0 97.84 -57.65 0 0 -240.41 0 0.03zm87.96 0.07c6.35,-1.45 13.51,-1.99 21.3,-1.99 42.57,0 66.7,17.26 66.7,61.69l0 38.33c0,51.21 -18.45,71.61 -66.7,71.61 -7.54,0 -14.72,-0.52 -21.3,-2.25l0 -39.94c22.62,-0.25 30.35,-6.25 30.35,-43.47 0,-32.08 -1.32,-43.4 -30.35,-43.75l0 -40.23z"></path> <path class="fil0" d="M1241.15 1725c-69.23,0 -85.98,-23.04 -85.98,-85.66 0,-64.51 15.44,-85.94 85.98,-85.97l0 38.33 -0.83 0c-20.44,0 -26.82,4.5 -27.46,26.57l28.29 0 0 30.34 -28.29 0c0,29.33 4.65,38.02 28.29,38.05l0 38.34 0 0 0 0zm0 -171.63l0.16 0c66.05,0 85.81,17.55 85.81,85.98l0 9.27 -85.97 0 0 -30.35 28.33 0c0,-24.61 -9.44,-26.5 -28.33,-26.56l0 -38.34 0 0 0 0zm85.97 113.82c0,25.21 -8.69,39.62 -23.77,47.89 -15.11,8.06 -36.54,9.95 -62.04,9.95l-0.16 0 0 -38.34 0.16 0c17.77,0 29.16,-1.92 29.16,-19.5l56.65 0 0 0 0 0z"></path> <path class="fil0" d="M1449.8 1620.51c0,-11.83 0.67,-24.96 -15.08,-24.96 -17.42,0 -21.46,13.09 -21.46,26.86l0 100.73 -57.65 0 0 -167.88 55.98 0 0 24.64 2.31 0c7.76,-19.18 22.84,-26.53 44.27,-26.53 40.23,0 43.57,31.31 43.57,62.01l0 13.12 -51.94 0 0 -7.99 0 0z"></path> <path class="fil1" d="M1740.96 1556.9l0 19.41 -32.43 -35.26c-20.18,12.87 -32.12,23.58 -32.12,42.7 0,24.03 22.01,38.37 43.34,38.37 7.64,0 14.57,-1.25 21.21,-3.66l0 13.83c-6.87,2.02 -13.83,2.95 -21.21,2.95 -27.75,0 -56.49,-19.25 -56.49,-51.49 0,-27.08 18.86,-41.45 38.18,-53.77l9.3 -5.93 7.44 8.11 22.78 24.77 0 -0.03 0 0zm0 -219.98l0 13.16 -0.32 0c-16.62,0 -27.33,10.01 -27.33,25.5 0,11.81 11.93,25.15 23.13,35.87 1.57,-1.03 3.08,-2.06 4.52,-3.02l0 15.72 -6.13 3.98 -7.5 -7.19c-12.64,-12.12 -27.18,-28.23 -27.18,-45.36 0,-22.74 16.65,-38.62 40.52,-38.62l0.29 0 0 -0.03 0 -0.01zm0 381.85c-7.96,0.87 -16.27,1.32 -24.9,1.32 -75.19,0 -156.13,-41.32 -156.13,-132.04 0,-46.81 28.55,-89.92 74.55,-112.54l15.12 -7.47 -10.94 -12.84c-21.27,-24.96 -34.49,-47.57 -34.49,-83.31 0,-69.07 52.39,-112.09 136.79,-112.41l0 -13.12c-91.11,0.32 -149.94,49.53 -149.94,125.53 0,39.88 14.98,65.32 37.63,91.85 -49.76,24.47 -81.87,72.18 -81.87,124.31 0,99.74 87.77,145.16 169.28,145.16 8.6,0 16.88,-0.42 24.87,-1.22l0 -13.22 0.03 0 0 0zm0 -294.62l0 -15.72c23.74,-16.39 27.65,-28.1 27.65,-34.1 0,-17.74 -14.18,-24.16 -27.65,-24.25l0 -13.16c24.41,0.16 40.81,15.14 40.81,37.41 0,15.56 -12.87,31.72 -38.21,48.15l-2.6 1.67 0 0 0 0zm0 208.14l0 -13.83c8.56,-3.08 16.68,-8.05 25.21,-14.69l-25.21 -27.43 0 -19.41 34.9 37.95 9.69 10.52 -11.29 8.76c-11.74,9.08 -22.39,14.95 -33.3,18.13l0 0 0 0zm0.9 -372.81c79.27,0 128.48,41.67 128.48,108.72 0,41 -23.23,78.44 -65.51,105.45l-13.34 8.53 10.84 11.52 30.57 32.56 10.81 11.52 9.37 -12.74 31.7 -43.11 0.57 -0.77 0.93 0 106.96 0 3.78 0 -2.27 3.01 -83.93 111.45 -6.67 8.85 7.64 8.09 88.35 93.29 3.01 3.17 -4.39 0 -118.6 0 -0.87 0 -0.58 -0.61 -25.89 -29.38 -8.72 -9.92 -9.85 8.76c-26.63,23.64 -56.69,36.93 -93.29,40.9l0 13.22c39.88,-4.11 72.98,-18.51 102.02,-44.3l25.88 29.38 4.53 5.07 6.77 0 118.56 0 34.94 0 -24 -25.31 -88.35 -93.32 83.93 -111.45 18.12 -24.06 -30.15 0 -106.93 0 -7.6 0 -4.52 6.13 -31.7 43.15 -30.54 -32.56c45.75,-29.23 71.57,-70.93 71.57,-116.52 0,-74.01 -55.59,-121.84 -141.63,-121.84l-0.9 0 0 13.12 0.9 0 0 0z"></path> <polygon class="fil1" points="2289.98,1723.14 2226.08,1723.14 2226.08,1629.11 2142.64,1629.11 2142.64,1723.14 2078.67,1723.14 2078.67,1483.37 2142.64,1483.37 2142.64,1573.52 2226.08,1573.52 2226.08,1483.37 2289.98,1483.37 "></polygon> <path class="fil1" d="M2434.15 1723.14l1.96 -32.34 -2.6 0c-7.64,25.92 -26.82,34.2 -50.18,34.2 -33.23,0 -56.91,-14.05 -56.91,-54.95l0 -114.76 54.99 0 0 100.06c0,15.3 1.6,27.46 20.14,27.46 14.7,0 31.03,-7.63 31.03,-24.28l0 -103.24 54.98 0 0 167.85 -53.41 0 0 0 0 0z"></path> <path class="fil1" d="M2579.95 1555.29l0 31.31 2.25 0c7.99,-26.53 24.28,-33.23 50.17,-33.23 37.12,0 54.06,17.55 54.06,53.7l0 116.03 -54.99 0 0 -103.26c-0.35,-16.3 -4.81,-24.29 -22.71,-24.29 -24.61,0 -28.78,14.7 -28.78,35.2l0 92.36 -54.98 0 0 -167.82 54.98 0 0 0 0 0z"></path> <path class="fil1" d="M2848.18 1595.55l-63.65 0 0 75.14c0.35,9.94 2.24,14.08 12.51,14.08 14.37,0 13.73,-10.23 14.37,-21.78l0.32 -8.92 43.82 0 0 15.04c0,45.69 -17,55.92 -61.75,55.92 -35.16,0 -64.26,-4.46 -64.26,-46.68l0 -82.76 -20.43 0 0 -40.3 20.43 0 0 -35.51 54.99 0 0 35.51 63.65 0 0 40.3 0 -0.03 0 -0.01z"></path> <path class="fil1" d="M2951.25 1725c-66.02,0 -82,-23.04 -82,-85.66 0,-64.51 14.69,-85.94 82,-85.97l0 38.33 -0.77 0c-19.5,0 -25.6,4.5 -26.24,26.57l27.01 0 0 30.34 -27.01 0c0,29.33 4.49,38.02 27.01,38.05l0 38.34 0 0 0 0zm0 -171.63l0.16 0c63,0 81.84,17.55 81.84,85.98l0 9.27 -82 0 0 -30.35 27.04 0c0,-24.61 -9.01,-26.5 -27.04,-26.56l0 -38.34 0 0 0 0zm82 113.82c0,25.21 -8.31,39.62 -22.72,47.89 -14.37,8.06 -34.84,9.95 -59.12,9.95l-0.16 0 0 -38.34 0.16 0c16.97,0 27.78,-1.92 27.78,-19.5l54.06 0 0 0 0 0z"></path> <path class="fil1" d="M3150.28 1620.51c0,-11.83 0.64,-24.96 -14.41,-24.96 -16.62,0 -20.47,13.09 -20.47,26.86l0 100.73 -54.98 0 0 -167.88 53.44 0 0 24.64 2.19 0c7.34,-19.18 21.75,-26.53 42.18,-26.53 37.18,0 41.35,29.39 41.58,59.12l0 16.01 -49.53 0 0 -7.99 0 0 0 0z"></path> <path class="fil0" d="M1055.82 1014.77c0,-89.76 21.91,-144.58 138.59,-144.58l194.18 0c65.83,0 103.72,14.95 103.72,66.79l0 17.07 221.32 0c2.02,-204.1 -38.75,-269.12 -352.6,-269.32l-215.67 0c-198.64,0.2 -316.86,50.27 -316.86,261.23l0 207.85c0,211.41 118.67,261.23 318.04,261.23l213.15 0c73.17,0 131.56,-3.5 178.04,-11.42 -1.76,-10.14 -2.66,-20.82 -2.66,-32.21 0,-55.37 22.1,-101.44 61.3,-134.1 30.29,-25.24 70.16,-41.28 116.84,-45.9 0.51,-14.37 0.61,-29.61 0.45,-45.68l-221.32 0 0 17.06c0,51.84 -37.92,66.79 -103.72,66.79l-194.21 0c-116.68,0 -138.59,-54.82 -138.59,-144.55l0 -70.29 0 0.03z"></path> <path class="fil1" d="M2421.8 684.73l0 265.56 -442.55 0 0 -265.56 -221.35 0 0 505.78c49.66,2.92 91.84,19.34 123.31,46.45 37.06,31.89 57.94,76.83 57.94,130.76 0,15.34 -1.99,30.35 -5.9,44.88l-0.64 2.44 46.64 0 0 -265.56 442.55 0 0 265.56 221.32 0 0 -730.31 -221.32 0 0 0 0 0z"></path> </g> </g> </svg> 