<?xml version="1.0" encoding="utf-8"?>
<svg xmlns="http://www.w3.org/2000/svg" width="71.875" height="43.875px" viewBox="0 0 71.875 43.875">
<path fill="#ED1C24" d="M70.449,42.529H1.552V11.651c0-5.599,4.584-10.183,10.186-10.183h58.711V42.529"/>
<polyline fill="#FFFFFF" points="11.738,19.078 17.181,19.078 17.181,28.828 22.049,28.828 22.049,19.078 27.486,19.078 
	27.486,15.142 11.738,15.142 11.738,19.078 "/>
<path fill="#FFFFFF" d="M37.027,26.009c-1.131,0-1.98-0.327-2.701-0.998c-0.705-0.657-1.211-1.66-1.211-3.026V21.78
	c0-1.359,0.506-2.378,1.211-3.03c0.721-0.676,1.576-0.988,2.701-0.988c2.657,0,3.225,1.582,3.395,2.613h4.32
	c-0.106-2.082-1.099-3.545-2.5-4.519c-1.396-0.97-3.017-1.465-5.168-1.465c-2.645,0-4.524,0.589-6.069,1.898
	c-1.556,1.336-2.384,3.439-2.384,5.541v0.107c0,2.298,0.72,4.021,2.316,5.471c1.492,1.356,3.668,1.976,6.086,1.968
	c2.143,0,3.981-0.503,5.256-1.46c1.403-1.061,2.362-2.55,2.478-4.514h-4.31C40.328,24.227,39.808,26.009,37.027,26.009"/>
<polyline fill="#FFFFFF" points="52.048,25.074 52.048,15.141 47.361,15.141 47.361,28.822 59.736,28.822 59.736,25.074 
	52.048,25.074 "/>
</svg>